<?xml version="1.0" encoding="utf-8"?>
<!-- Generator: Adobe Illustrator 16.0.0, SVG Export Plug-In . SVG Version: 6.00 Build 0)  -->
<!DOCTYPE svg PUBLIC "-//W3C//DTD SVG 1.1//EN" "http://www.w3.org/Graphics/SVG/1.1/DTD/svg11.dtd">
<svg version="1.1"
	 id="svg8" xmlns:dc="http://purl.org/dc/elements/1.1/" xmlns:cc="http://creativecommons.org/ns#" xmlns:rdf="http://www.w3.org/1999/02/22-rdf-syntax-ns#" xmlns:svg="http://www.w3.org/2000/svg" xmlns:sodipodi="http://sodipodi.sourceforge.net/DTD/sodipodi-0.dtd" xmlns:inkscape="http://www.inkscape.org/namespaces/inkscape" sodipodi:docname="CAMBAM.svg" inkscape:version="0.92.2 5c3e80d, 2017-08-06"
	 xmlns="http://www.w3.org/2000/svg" xmlns:xlink="http://www.w3.org/1999/xlink" x="0px" y="0px" width="600px" height="210px"
	 viewBox="0 0 600 210" enable-background="new 0 0 600 210" xml:space="preserve">
<g>
	
		<line fill="none" stroke="#D4E0A7" stroke-width="3.1556" stroke-miterlimit="10" x1="258.597" y1="166.649" x2="258.597" y2="49.441"/>
	<g>
		<path fill="#D4E0A7" d="M137.245,167.211c-0.506,0-1.008-0.011-1.514-0.027c-2.15-0.078-3.479-1.426-3.471-3.518
			c0.02-6.089,0.02-12.175,0-18.259c-0.004-1.049,0.316-1.901,0.951-2.539c0.43-0.432,1.203-0.942,2.449-0.942
			c0.117,0,0.236,0.004,0.363,0.014c0.295,0.021,0.592,0.029,0.889,0.029c1.779,0,3.566-0.34,5.459-0.697
			c0.41-0.078,0.818-0.156,1.227-0.229c2.52-0.455,5.146-1.281,8.273-2.601c5.291-2.229,9.957-5.551,13.865-9.858
			c2.508-2.769,4.506-5.953,5.936-9.474c1.805-4.442,2.609-8.604,2.459-12.715c-0.141-3.797-0.941-7.433-2.379-10.805
			c-1.631-3.826-3.703-7.073-6.336-9.927c-2.268-2.456-4.648-4.493-7.281-6.23c-2.469-1.63-5.174-3-8.045-4.074
			c-2.59-0.972-5.277-1.671-7.988-2.078c-1.973-0.295-4.072-0.584-6.146-0.584h-0.104c-1.332,0-2.141-0.535-2.588-0.982
			c-1.006-1.01-1.002-2.326-1-2.822c0.01-3.986,0.008-7.977,0.008-11.968l-0.002-4.486c-0.004-0.579-0.004-1.155,0.004-1.731
			c0.027-2.021,1.451-3.379,3.543-3.379c0.082,0,0.164,0.002,0.252,0.006l1.211,0.052c2.996,0.126,6.098,0.255,9.174,0.812
			l0.656,0.118c2.285,0.409,4.648,0.831,6.975,1.503l0.52,0.15c2.209,0.639,4.492,1.299,6.707,2.154
			c3.627,1.404,7.314,3.238,11.604,5.775c3.668,2.172,7.256,4.948,11.289,8.741c2.605,2.453,4.809,5.187,6.621,7.533
			c1.943,2.521,3.688,5.349,5.656,9.167c1.131,2.199,1.963,4.508,2.695,6.676c0.551,1.634,0.945,3.27,1.328,4.854
			c0.178,0.733,0.355,1.466,0.547,2.197c0.361,1.37,0.551,2.734,0.562,4.056c0.008,1.051,0.148,2.127,0.297,3.266
			c0.197,1.516,0.4,3.082,0.318,4.748c-0.107,2.121,0.496,4.281,1.137,6.57l0.09,0.327c0.748,2.689,1.924,5.295,3.596,7.961
			c2.486,3.968,5.826,7.455,9.92,10.369c2.928,2.082,6.215,3.611,9.041,4.83c1.283,0.553,2.736,0.924,4.369,1.318
			c4.045,0.973,7.172,1.408,10.139,1.41c1.014,0,1.838,0.311,2.445,0.922c0.906,0.91,0.9,2.065,0.898,2.502
			c-0.012,2.293-0.01,4.59-0.008,6.885l0.002,2.348c0,0.849-0.002,1.697-0.006,2.546c-0.01,2.112-0.018,4.297,0.029,6.428
			c0.008,0.406,0.037,1.639-0.896,2.613c-0.961,0.997-2.277,1.022-2.84,1.032c-0.254,0.004-0.51,0.009-0.768,0.009
			c-4.039,0-7.879-0.593-11.785-1.25c-5.938-0.998-11.957-2.927-17.896-5.732c-4.369-2.063-8.652-4.75-13.092-8.207
			c-2.9-2.258-5.621-4.896-8.482-8.231c-4.455,5.192-9.908,9.741-16.232,13.53c-2.422,1.453-4.977,2.633-7.6,3.812
			c-4.512,2.028-9.203,3.555-13.939,4.528C146.831,166.379,142.165,167.211,137.245,167.211z"/>
		<path fill="#D4E0A7" d="M241.499,154.575c0,3.009-0.045,6.021,0.023,9.025c0.021,0.99-0.354,1.215-1.42,1.234
			c-4.107,0.08-8.111-0.535-12.119-1.209c-6.098-1.025-11.842-2.972-17.277-5.539c-4.57-2.158-8.74-4.892-12.652-7.937
			c-3.465-2.696-6.404-5.789-9.113-9.065c-0.744-0.898-1.117-0.646-1.693,0.063c-4.564,5.599-10.137,10.281-16.57,14.14
			c-2.33,1.397-4.832,2.551-7.354,3.684c-4.303,1.934-8.791,3.41-13.451,4.371c-4.6,0.947-9.281,1.647-14.059,1.479
			c-0.936-0.032-1.195-0.381-1.193-1.151c0.02-6.09,0.021-12.183,0-18.271c-0.002-0.799,0.33-1.174,1.234-1.106
			c2.793,0.194,5.492-0.443,8.166-0.931c3.031-0.549,5.945-1.557,8.768-2.746c5.832-2.461,10.682-6.021,14.697-10.448
			c2.764-3.045,4.863-6.449,6.375-10.17c1.805-4.447,2.803-8.994,2.629-13.689c-0.148-3.979-0.959-7.876-2.564-11.645
			c-1.646-3.861-3.834-7.416-6.773-10.603c-2.275-2.465-4.82-4.688-7.717-6.602c-2.648-1.747-5.508-3.188-8.516-4.313
			c-2.699-1.013-5.525-1.759-8.465-2.2c-2.201-0.33-4.379-0.621-6.611-0.61c-1.08,0.006-1.221-0.658-1.217-1.438
			c0.01-5.247,0.006-10.491,0.006-15.739c0-0.809-0.01-1.614,0.002-2.422c0.012-0.774,0.42-1.089,1.332-1.049
			c3.371,0.149,6.752,0.227,10.068,0.826c2.482,0.448,4.973,0.868,7.396,1.566c2.369,0.687,4.744,1.354,7.029,2.24
			c3.961,1.532,7.654,3.478,11.252,5.604c4.051,2.396,7.559,5.312,10.875,8.43c2.375,2.236,4.41,4.718,6.369,7.255
			c2.145,2.78,3.861,5.769,5.426,8.807c1.047,2.029,1.828,4.188,2.559,6.35c0.766,2.271,1.225,4.599,1.83,6.897
			c0.305,1.153,0.475,2.335,0.484,3.474c0.021,2.645,0.75,5.227,0.617,7.877c-0.131,2.613,0.605,5.119,1.311,7.646
			c0.844,3.038,2.172,5.875,3.867,8.584c2.693,4.293,6.217,7.952,10.555,11.036c2.92,2.078,6.152,3.644,9.475,5.076
			c1.494,0.646,3.137,1.056,4.75,1.443c3.496,0.844,7.045,1.475,10.689,1.477c0.895,0,0.988,0.422,0.984,1.052
			C241.487,148.409,241.497,151.491,241.499,154.575z"/>
		<path fill="#D4E0A7" d="M202.333,95.026l-0.205-0.021c-0.523-0.064-2.244-0.448-2.531-2.718l-0.018-0.118l-1.186-0.636
			l0.369-1.375l-0.4-0.856l0.121-0.188l-0.627-1.782c-1.461-3.702-3.436-7.343-6.029-11.116c-0.764-1.109-1.615-2.238-2.533-3.355
			c-1.229-1.488-1.166-3.256,0.164-4.606c0.736-0.744,1.455-1.499,2.176-2.253l0.848-0.887l0.268-0.32l0.311-0.159l0.072-0.121
			l0.262-0.235l0.779-0.676l0.742-0.679l0.945-0.785l0.062-0.035l0.621-0.47c1.912-1.448,3.893-2.946,6.035-4.271
			c3.809-2.354,7.785-4.36,11.822-5.967c1.023-0.408,14.088-4.086,15.023-4.148l0.543-0.034l0.025,0.011
			c0.514-0.04,1.443-0.123,2.289-0.199c2.773-0.248,6.223-0.557,7.727-0.557c0.184,0,0.34,0.004,0.469,0.013l0.213,0.013
			c0.453,0.02,1.072,0.047,1.754,0.302l1.264,0.469l0.354,1.96l-0.035,1.773c-0.023,1.049-0.047,2.097-0.049,3.144
			c-0.008,3.235-0.006,6.474-0.006,9.711l0.002,4.03c0,3.968-3.229,4.055-4.289,4.084c-0.703,0.02-2.816,0.125-3.623,0.206
			l-0.639,0.347l-0.135-0.053l-0.734-0.145c-0.854,0.082-3.764,0.758-4.801,1.065l-0.084,0.071l-0.52,0.143
			c-3.643,0.995-7.068,2.52-10.467,4.655l-1.541,1.202l-0.285,0.094l-0.082,0.131l-0.439,0.241c-2.602,1.837-4.912,4.02-7.055,6.675
			c-1.592,1.975-2.816,4.15-4.111,6.457l-0.092,0.166c-0.703,1.57-1.934,1.807-2.602,1.807h-0.142V95.026z"/>
		<path fill="#D4E0A7" d="M215.083,77.919c-2.949,2.062-5.453,4.488-7.639,7.195c-1.758,2.181-3.086,4.565-4.426,6.949
			c-0.143,0.254-0.213,0.646-0.607,0.6c-0.453-0.056-0.438-0.477-0.49-0.795c-0.09-0.574-0.105-1.177-0.762-1.528
			c0.08-0.293,0.025-0.575-0.102-0.849c0.102-0.157,0.08-0.295-0.092-0.403l-0.023-0.092c-0.236-0.676-0.475-1.351-0.709-2.022
			c0.053-0.07,0.037-0.124-0.047-0.162c-1.621-4.198-3.818-8.15-6.414-11.931c-0.828-1.204-1.719-2.379-2.656-3.519
			c-0.449-0.546-0.465-0.957,0.025-1.453c1.047-1.063,2.068-2.146,3.102-3.223l0.008-0.012c0.311-0.152,0.555-0.365,0.721-0.645
			l0.02-0.017c0.244-0.21,0.484-0.42,0.727-0.63l0.033-0.028c0.236-0.216,0.473-0.432,0.709-0.646l0.018-0.016
			c0.244-0.203,0.488-0.408,0.732-0.609l0.014-0.008c2.15-1.623,4.279-3.276,6.598-4.709c3.615-2.234,7.418-4.177,11.453-5.782
			c1.625-0.646,14.221-3.979,14.305-3.984c0.172,0.07,9.059-0.872,10.754-0.769c0.443,0.026,0.877,0.017,1.291,0.172
			c0.025,0.135,0.051,0.271,0.074,0.406c-0.027,1.572-0.078,3.147-0.082,4.721c-0.01,4.582-0.002,9.164-0.002,13.747
			c0,1.381-0.375,1.682-1.994,1.724c-0.633,0.018-4.098,0.176-4.344,0.309c-0.172-0.067-0.332-0.058-0.48,0.052
			c-0.707-0.138-6.035,1.155-6.27,1.36c-4.092,1.117-7.83,2.854-11.303,5.062c-0.297,0.19-0.643,0.332-0.717,0.7
			c-0.301-0.006-0.58,0.021-0.699,0.324c-0.299,0.099-0.553,0.248-0.711,0.502L215.083,77.919z"/>
		<path fill="#D4E0A7" d="M61.857,94.65c-0.475-0.014-2.064-0.203-2.652-2.099c-1.34-2.805-3.199-5.463-5.521-7.898
			c-1.98-2.073-3.939-3.795-5.992-5.26c-2.125-1.518-4.539-2.849-7.377-4.07c-2.967-1.274-6.344-2.214-10.947-3.041
			c-0.982-0.176-2.098-0.263-3.402-0.263c-0.268,0-0.537,0.004-0.805,0.011c-0.236,0.006-0.443,0.008-0.625,0.008
			c-3.555,0-3.557-2.683-3.559-3.971v-8.81l0.004-2.562c0.008-2.108,0.016-4.291-0.023-6.424c-0.02-1.096,0.297-1.984,0.939-2.639
			c0.898-0.916,2.066-1.023,2.867-1.023c4.178,0,8.504,0.471,13.656,1.482c3.135,0.613,6.275,1.482,9.338,2.576
			c3.934,1.412,7.051,2.752,9.811,4.224c6.318,3.365,11.811,7.452,16.322,12.146c0.188,0.197,0.395,0.375,0.598,0.556
			c1.539,1.352,1.75,3.284,0.566,4.946l-0.828,1.156c-0.93,1.29-1.807,2.512-2.615,3.777c-2.082,3.264-3.684,6.362-4.896,9.475
			c-0.266,0.684-0.486,1.399-0.717,2.157c-0.359,1.179-0.73,2.396-1.32,3.619c-0.76,1.682-2.039,1.925-2.734,1.925L61.857,94.65z"/>
		<path fill="#D4E0A7" d="M23.335,59.259c0-3.01,0.033-6.02-0.02-9.027c-0.018-0.974,0.389-1.259,1.449-1.259
			c4.471-0.004,8.854,0.584,13.201,1.438c3.074,0.604,6.062,1.435,8.994,2.483c3.275,1.175,6.473,2.47,9.498,4.082
			c5.936,3.161,11.227,7.015,15.73,11.7c0.242,0.252,0.506,0.484,0.77,0.717c0.629,0.553,0.637,1.13,0.174,1.779
			c-1.188,1.669-2.416,3.316-3.512,5.033c-2.016,3.164-3.758,6.435-5.104,9.888c-0.725,1.854-1.094,3.802-1.965,5.611
			c-0.133,0.273-0.219,0.599-0.629,0.588c-0.438-0.014-0.418-0.396-0.537-0.651c-1.492-3.15-3.504-6.007-5.994-8.615
			c-1.928-2.021-4.01-3.898-6.328-5.554c-2.4-1.715-5.033-3.119-7.816-4.317c-3.648-1.566-7.521-2.486-11.461-3.194
			c-1.523-0.273-3.105-0.325-4.68-0.288c-1.764,0.039-1.768,0.008-1.77-1.605C23.333,65.131,23.335,62.194,23.335,59.259z"/>
		<path fill="#D4E0A7" d="M21.812,142.68H21.47l-0.506-3.592c0,0,0.053-0.537,0.068-0.67c0.018-0.158,0.041-0.316,0.041-0.474
			c0.006-20.711,0.006-41.418,0-62.123c0-0.16-0.023-0.315-0.041-0.476c-0.016-0.133-0.061-0.59-0.061-0.59l0.152-2.164
			l-0.162-1.202l0.246-0.025l0.025-0.375l1.545,0.205l1.201-0.131l0.578,0.01l0.188,0.032c0.322,0.056,0.656,0.112,0.9,0.112
			c0.059,0,0.119-0.002,0.178-0.014l0.818-0.162l0.738,0.388c0.574,0.303,1.408,0.312,2.371,0.323l0.635,0.009l1.773,0.044
			l0.77,2.956l-0.035,0.403c-0.014,0.137-0.029,0.274-0.045,0.412c-0.018,0.155-0.041,0.311-0.041,0.465
			c-0.004,20.41-0.004,40.826,0,61.237c0,0.158,0.023,0.314,0.041,0.476c0.016,0.135,0.062,0.604,0.062,0.604l-0.133,1.656
			l0.518,1.719l-0.664,0.104l-0.061,0.766l-1.898-0.459l-0.955,0.146l-0.424-0.093c-0.105-0.022-0.174-0.026-0.211-0.026
			l-0.65,0.213l-0.484-0.113l-0.326,0.141l-0.623-0.069c-0.158-0.017-0.314-0.027-0.471-0.027c-0.424,0-0.621,0.088-0.744,0.162
			l-0.627,0.387L21.812,142.68z"/>
		<path fill="#D4E0A7" d="M27.263,139.996c-0.963-0.107-1.887-0.039-2.713,0.469c-0.305-0.017-0.607-0.033-0.91-0.049l-0.023-0.086
			l-0.096-0.011c-0.061-0.43-0.121-0.86-0.182-1.289c0.033-0.362,0.094-0.725,0.094-1.086c0.006-20.711,0.006-41.418,0-62.123
			c0-0.363-0.061-0.726-0.094-1.089c0.027-0.358,0.051-0.716,0.076-1.073c0.158,0.021,0.227-0.041,0.207-0.181
			c0.154-0.017,0.311-0.035,0.467-0.054c0.082,0.002,0.168,0.004,0.252,0.006c0.643,0.109,1.285,0.219,1.941,0.088
			c1.262,0.662,2.664,0.568,4.045,0.604c0.072,0.276,0.146,0.554,0.215,0.832c-0.033,0.36-0.096,0.725-0.096,1.086
			c-0.004,20.414-0.004,40.828,0,61.242c0,0.363,0.062,0.726,0.096,1.089c-0.035,0.428-0.068,0.858-0.104,1.288
			c-0.168-0.04-0.229,0.013-0.184,0.162c-0.154,0.023-0.307,0.045-0.459,0.068c-0.502-0.109-1-0.123-1.492,0.041
			C27.946,139.84,27.599,139.849,27.263,139.996z"/>
		<path fill="#D4E0A7" d="M126.083,142.53l-0.184,0.088l-0.855-0.43c-0.031,0.006-0.551,0.111-0.551,0.111l-0.459-0.086
			c-0.215-0.041-0.492-0.088-0.715-0.088c-0.061,0-0.119,0.004-0.178,0.012l-2.682,0.414l-0.012-0.768l-0.293-0.003l-0.281-3.868
			c0,0,0.045-0.474,0.061-0.613c0.018-0.152,0.041-0.303,0.041-0.457c0.004-19.756,0.004-39.509,0-59.26l0.008-0.819
			c0.01-0.779,0.023-1.892,0.016-2.164l-0.182-2.406l2.41-0.073c0.777-0.043,3.123-0.09,4.99-0.09c1.66,0,2.172,0.036,2.451,0.072
			l1.959,0.253l0.098,1.972c0.02,0.407,0.014,0.864,0.006,1.31c-0.004,0.188-0.008,0.378-0.008,0.555
			c0.006,7.113,0.006,14.229,0.002,21.341l-0.027,43.92l-1.168,0.686c-0.564,0.33-1.184,0.496-1.842,0.496
			c-0.592,0-1.082-0.131-1.533-0.266c-0.035-0.011-0.07-0.021-0.102-0.031l-0.801,0.301L126.083,142.53z"/>
		<path fill="#D4E0A7" d="M129.337,140.098c-0.5,0.295-0.99,0.164-1.506,0.008c-0.418-0.123-0.859-0.26-1.316-0.088
			c-0.191-0.121-0.391-0.131-0.598-0.031c-0.465-0.233-0.951-0.19-1.441-0.09c-0.561-0.104-1.123-0.178-1.695-0.09
			c-0.004-0.252-0.154-0.367-0.428-0.369c-0.037-0.502-0.074-1.006-0.111-1.508c0.031-0.363,0.094-0.725,0.094-1.086
			c0.004-19.756,0.004-39.509,0-59.263c0-0.362,0.039-2.849,0.02-3.104c1.141-0.062,6.17-0.142,7.014-0.032
			c0.027,0.547-0.004,1.199-0.004,1.75c0.004,7.112,0.006,14.227,0.002,21.338C129.358,111.721,129.347,125.909,129.337,140.098z"/>
		<path fill="#D4E0A7" d="M46.347,135.297c-0.535,1.979-2.137,2.164-2.607,1.967l0.002-6.312
			c0.008-15.984,0.008-31.967-0.002-47.949v-6.819c0.639-0.378,2.541,0.739,3.205,0.739c0.855,0,1.318,1.958,2.088,2.585
			c2.041,1.661,3.617,3.09,4.963,4.496c1,1.048,1.506,2.269,1.506,3.629L55.5,126.255c0,1.748-1,2.885-1.537,3.496
			c-1.557,1.764-3.178,3.237-4.957,4.51l-0.092,0.064C48.409,134.688,47.564,135.297,46.347,135.297z"/>
		<path fill="#D4E0A7" d="M45.825,81.164c0.629-0.374,1.125-0.311,1.719,0.173c1.67,1.36,3.275,2.763,4.744,4.298
			c0.572,0.598,0.852,1.229,0.852,1.997c-0.002,12.875,0,25.747,0,38.622c0,0.77-0.414,1.328-0.949,1.936
			c-1.355,1.537-2.85,2.931-4.559,4.15c-0.531,0.381-1.045,0.809-1.814,0.483c0.107-0.12,0.107-0.241-0.006-0.362
			c0.48-0.287,0.287-0.73,0.287-1.107c0.012-16.242,0.012-32.481,0-48.724c0-0.376,0.193-0.818-0.279-1.113
			C45.935,81.399,45.935,81.281,45.825,81.164z"/>
		<path fill="#D4E0A7" d="M107.64,135.44c-0.848,0-1.656-0.312-2.404-0.924c-1.971-1.621-3.512-2.988-4.857-4.307
			c-1.068-1.045-1.609-2.275-1.609-3.652c0.01-12.803,0.01-25.604-0.002-38.405c0-1.396,0.506-2.602,1.506-3.584
			c1.707-1.678,3.34-3.125,4.99-4.419c0.789-0.622,1.586-0.922,2.441-0.922c0.662,0,1.316,0.189,1.949,0.564l0.877,3.879
			c-0.01,15.775-0.01,31.551,0,47.326l-0.914,3.87C108.946,135.256,108.298,135.44,107.64,135.44z"/>
		<path fill="#D4E0A7" d="M108.442,132.821c-0.609,0.351-1.086,0.384-1.711-0.131c-1.629-1.34-3.213-2.707-4.703-4.166
			c-0.59-0.578-0.9-1.186-0.9-1.967c0.01-12.801,0.01-25.605,0-38.407c-0.002-0.739,0.242-1.353,0.799-1.897
			c1.516-1.49,3.098-2.915,4.793-4.248c0.596-0.469,1.092-0.562,1.727-0.184c-0.109,0.12-0.109,0.239,0.004,0.359
			c-0.475,0.293-0.279,0.735-0.279,1.11c-0.01,16.021-0.01,32.042,0,48.06c0,0.379-0.189,0.818,0.277,1.115
			C108.331,132.586,108.331,132.702,108.442,132.821z"/>
		<path fill="#D4E0A7" d="M24.052,167.196l-0.191-0.061c-1.754-0.572-2.637-1.9-2.625-3.953c0.025-4.311,0.023-8.619,0.021-12.928
			l-0.002-4.121c0-1.103,0-4.027,3.369-4.027c0.289,0,0.646,0.023,1.09,0.06c0.352,0.026,0.705,0.038,1.055,0.038
			c1.967,0,3.936-0.405,5.781-0.823c6.025-1.363,11.41-3.763,16.002-7.131c3.967-2.908,7.162-6.273,9.496-10.009
			c1.189-1.899,2.375-3.961,3-6.127c0.244-0.848,0.467-1.703,0.689-2.557c0.26-1.004,0.52-2.002,0.811-2.986
			c0.406-1.371,0.387-2.86,0.363-4.438c-0.021-1.564-0.043-3.183,0.328-4.869c0.197-0.894,0.293-1.836,0.395-2.831
			c0.146-1.438,0.297-2.924,0.766-4.471c0.088-0.291,0.182-0.583,0.277-0.876c0.326-1.015,0.635-1.972,0.652-2.839
			c0.021-1.123,0.475-2.036,0.807-2.699c0.074-0.149,0.15-0.297,0.213-0.442c0.303-0.701,0.588-1.407,0.875-2.113
			c0.537-1.323,1.092-2.692,1.762-4.049c0.678-1.37,1.449-2.67,2.195-3.926c0.424-0.713,0.848-1.427,1.252-2.149
			c1.102-1.979,2.582-3.694,4.014-5.354l0.164-0.189c1.885-2.187,4.127-4.433,6.855-6.867c3.111-2.776,6.756-5.344,10.828-7.625
			c2.656-1.488,5.293-2.906,8.34-3.879c0.637-0.203,1.293-0.478,1.986-0.768c0.658-0.275,1.338-0.562,2.062-0.809
			c0.504-0.174,1.025-0.313,1.547-0.45c0.562-0.147,1.094-0.286,1.529-0.468c1.08-0.445,2.158-0.635,3.109-0.803
			c0.541-0.097,1.051-0.186,1.512-0.312c1.85-0.508,3.363-0.789,4.762-0.885c1.174-0.082,2.381-0.282,3.797-0.635l0.814-0.201
			l0.031-0.058l0.365-0.04l0.197-0.05l0.02,0.022l2.195-0.246l0.773-0.004l0.121,0.041l0.266-0.088l1.721,0.215l1.33,0.422
			c1.822,0.584,1.754,2.269,1.682,4.053l-0.01,0.214c0.004,0.278,0.01,0.594,0.014,0.911c0.008,0.371,0.016,0.74,0.018,1.113
			l0.006,1.017c0.008,1.032,0.014,2.065,0.01,3.101c-0.006,1.014,0.002,2.024,0.012,3.037c0.016,1.707,0.029,3.473-0.025,5.226
			c-0.02,0.67-0.045,1.428-0.012,2.145c0.023,0.503,0.074,1.646-0.816,2.616c-1.223,1.329-6.65,1.41-7.41,1.416
			c-0.936,0.137-6.307,1.273-6.992,1.464c-0.23,0.07-0.459,0.175-0.689,0.272c-0.32,0.139-0.641,0.274-0.973,0.388
			c-3.695,1.239-6.871,2.788-9.719,4.737c-2.814,1.928-5.311,4.127-7.42,6.535c-1.949,2.224-3.463,4.413-4.627,6.697
			c-0.619,1.215-1.312,2.646-1.768,4.032c-0.203,0.621-0.379,1.279-0.559,1.937c-0.16,0.593-0.32,1.185-0.494,1.75
			c-0.398,1.291-0.402,2.716-0.404,4.224c-0.004,1.481-0.008,3.016-0.369,4.61c-0.197,0.869-0.234,1.808-0.275,2.8
			c-0.047,1.159-0.096,2.356-0.391,3.614c-0.137,0.576-0.244,1.158-0.352,1.74c-0.199,1.066-0.402,2.168-0.764,3.303
			c-0.094,0.289-0.189,0.58-0.287,0.871c-0.295,0.89-0.574,1.728-0.701,2.523c-0.143,0.9-0.486,1.672-0.762,2.291
			c-0.102,0.229-0.205,0.459-0.291,0.691c-0.867,2.37-2.035,4.633-3.062,6.532c-0.846,1.562-1.885,3.193-3.174,4.982
			c-2.926,4.055-5.828,7.387-8.877,10.188c-4.301,3.947-9.252,7.351-15.141,10.398c-2.277,1.18-4.691,2.113-7.025,3.014
			l-0.271,0.104c-1.412,0.545-2.871,1.106-4.525,1.438c-0.17,0.033-0.494,0.183-0.783,0.312c-0.207,0.094-0.416,0.188-0.621,0.272
			c-1.383,0.566-4.518,1.338-5.586,1.504l0.002,0.007c-0.41,0.062-1.037,0.178-1.664,0.291c-1.746,0.317-2.238,0.399-2.631,0.399
			h-0.167l-0.084-0.012c-0.305,0.004-1.012,0.115-1.582,0.203c-0.766,0.121-1.553,0.242-2.24,0.271
			c-0.703,0.146-1.705,0.191-3.248,0.269l-0.514,0.022L24.052,167.196z"/>
		<path fill="#D4E0A7" d="M128.939,49.733c0.375,0.117,0.75,0.237,1.123,0.355c0.129,0.042,0.023,1.803,0.023,1.992
			c0.004,0.688,0.027,1.371,0.031,2.059c0.006,1.364,0.021,2.73,0.014,4.098c-0.014,2.729,0.074,5.469-0.01,8.198
			c-0.025,0.783-0.047,1.543-0.012,2.325c0.014,0.307,0.035,0.659-0.197,0.912c-0.26,0.283-5.145,0.664-5.783,0.652
			c-0.445-0.01-6.953,1.383-7.545,1.561c-0.607,0.184-1.158,0.486-1.756,0.689c-3.682,1.232-7.141,2.864-10.295,5.024
			c-2.961,2.028-5.596,4.339-7.861,6.928c-1.936,2.206-3.633,4.589-4.953,7.182c-0.73,1.433-1.43,2.911-1.908,4.37
			c-0.393,1.189-0.695,2.519-1.066,3.724c-0.926,3.005-0.156,6.081-0.82,9.009c-0.488,2.158-0.174,4.322-0.662,6.396
			c-0.379,1.614-0.557,3.266-1.066,4.868c-0.391,1.23-0.867,2.462-1.07,3.74c-0.141,0.896-0.629,1.699-0.936,2.539
			c-0.779,2.131-1.828,4.197-2.924,6.223c-0.881,1.63-1.914,3.203-3.014,4.728c-2.521,3.498-5.289,6.826-8.557,9.828
			c-4.336,3.979-9.271,7.266-14.631,10.043c-2.182,1.129-4.52,2.029-6.85,2.93c-1.434,0.551-2.818,1.099-4.352,1.406
			c-0.621,0.123-1.238,0.473-1.832,0.715c-1.482,0.609-4.891,1.357-5.051,1.363c-1.1,0.168-3.717,0.696-3.967,0.662
			c-0.924-0.084-3.234,0.493-4.404,0.469c-0.086,0.135-2.379,0.231-3.285,0.279c-0.244-0.037-0.486-0.072-0.732-0.107
			c-0.914-0.299-1-0.92-0.994-1.695c0.033-5.688,0.018-11.375,0.018-17.062c0-1.646,0.014-1.771,1.908-1.617
			c2.605,0.211,5.137-0.289,7.549-0.834c6.203-1.404,11.889-3.873,16.877-7.531c4.104-3.008,7.531-6.551,10.102-10.658
			c1.32-2.114,2.568-4.307,3.266-6.723c0.531-1.844,0.957-3.711,1.494-5.531c0.943-3.178,0.057-6.389,0.734-9.467
			c0.52-2.365,0.402-4.774,1.115-7.13c0.424-1.399,1-2.837,1.029-4.351c0.016-0.802,0.518-1.542,0.826-2.251
			c0.869-2.011,1.605-4.067,2.586-6.055c1.014-2.05,2.279-3.977,3.393-5.97c1.025-1.842,2.488-3.511,3.904-5.154
			c2.029-2.354,4.281-4.541,6.639-6.646c3.148-2.809,6.67-5.23,10.412-7.327c2.492-1.397,5.055-2.78,7.904-3.688
			c1.375-0.438,2.705-1.115,4.096-1.594c1.055-0.361,2.195-0.546,3.215-0.968c1.385-0.573,2.906-0.625,4.34-1.019
			c1.385-0.379,2.861-0.707,4.303-0.808c1.449-0.102,2.822-0.354,4.199-0.696c0.158,0.181,0.312,0.168,0.471,0.002
			c0.418-0.156,1.01,0.19,1.299-0.348c0.477-0.054,0.955-0.105,1.432-0.16c0.086-0.002,0.17-0.002,0.254-0.002
			c0.33,0.106,0.66,0.106,0.988,0.002C128.278,49.651,128.608,49.692,128.939,49.733z"/>
		<path fill="#D4E0A7" d="M127.898,167.022c-1.094,0-2.111-0.176-3.01-0.332c-0.613-0.106-1.193-0.209-1.742-0.248
			c-0.215-0.014-0.436-0.043-0.658-0.071c-0.135-0.019-0.27-0.041-0.4-0.041c-0.357,0.039-0.748,0.062-1.143,0.062
			c-1.551,0-3-0.336-4.277-0.631c-0.482-0.113-0.961-0.223-1.436-0.312c-1.797-0.336-3.59-0.85-5.322-1.346l-1.193-0.338
			c-3.131-0.877-6.365-2.1-9.893-3.738c-5.301-2.463-9.703-5.209-13.457-8.393c-2.203-1.867-4.346-3.709-6.314-5.721
			c-1.365-1.396-1.498-3.236-0.336-4.691l0.215-0.271c1.256-1.579,2.443-3.069,3.371-4.664c0.289-0.5,0.588-0.993,0.887-1.487
			c0.953-1.578,1.854-3.066,2.451-4.646c0.324-0.86,0.719-1.68,1.098-2.469c0.268-0.557,0.537-1.115,0.771-1.676
			c0.352-0.84,0.602-1.806,0.867-2.828l0.014-0.049c0.201-2.438,2.027-2.854,2.586-2.926c0.16-0.021,0.299-0.027,0.426-0.027
			c1.156,0,2.385,0.695,2.699,2.242c0.479,0.676,0.928,1.35,1.365,2.008c0.855,1.287,1.666,2.504,2.619,3.617
			c2.039,2.383,4.217,4.41,6.654,6.194c2.982,2.187,6.186,3.931,9.516,5.187c1.646,0.619,3.447,1.143,5.145,1.613
			c0.494,0.139,1.062,0.217,1.664,0.301c1.004,0.139,2.143,0.299,3.312,0.776c0.09,0.037,0.322,0.101,0.873,0.101
			c0.355,0,0.721-0.021,1.086-0.045c0.453-0.025,0.906-0.049,1.346-0.049h0.1c3.635,0.032,4.316,1.491,4.316,4.17v8.256
			l-0.006,2.475c-0.008,2.101-0.016,4.273,0.027,6.396c0.027,1.246-0.4,3.369-3.547,3.584
			C128.345,167.017,128.12,167.022,127.898,167.022z"/>
		<path fill="#D4E0A7" d="M129.735,154.549c0,2.975-0.037,5.947,0.023,8.918c0.02,0.938-0.363,1.113-1.35,1.182
			c-1.764,0.121-3.393-0.438-5.1-0.559c-0.492-0.033-0.992-0.162-1.471-0.107c-2.145,0.244-4.178-0.479-6.172-0.852
			c-2.09-0.394-4.23-1.053-6.316-1.637c-3.336-0.937-6.486-2.191-9.533-3.607c-4.68-2.174-9.08-4.789-12.924-8.051
			c-2.119-1.795-4.229-3.605-6.154-5.572c-0.541-0.553-0.596-1.045-0.18-1.568c1.346-1.692,2.711-3.381,3.781-5.221
			c1.24-2.127,2.633-4.178,3.506-6.492c0.516-1.356,1.271-2.703,1.84-4.062c0.436-1.045,0.725-2.188,1.014-3.299
			c0.107-0.412-0.076-0.992,0.576-1.076c0.723-0.092,0.414,0.574,0.629,0.867c1.49,2.041,2.719,4.219,4.387,6.168
			c2.078,2.426,4.402,4.623,7.051,6.563c3.074,2.248,6.443,4.117,10.08,5.488c1.703,0.641,3.543,1.18,5.344,1.682
			c1.545,0.431,3.178,0.357,4.713,0.986c1.203,0.494,2.836,0.172,4.279,0.182c1.977,0.021,1.977,0.007,1.977,1.812
			C129.735,149.047,129.735,151.799,129.735,154.549z"/>
	</g>
	<g>
		
			<linearGradient id="SVGID_1_" gradientUnits="userSpaceOnUse" x1="-207.3789" y1="571.7334" x2="-100.4771" y2="571.7334" gradientTransform="matrix(1 0 0 -1 342 679)">
			<stop  offset="0" style="stop-color:#D26834"/>
			<stop  offset="0.4192" style="stop-color:#E04733"/>
			<stop  offset="1" style="stop-color:#F51331"/>
		</linearGradient>
		<path fill="url(#SVGID_1_)" d="M241.499,154.575c0,3.009-0.045,6.021,0.023,9.025c0.021,0.99-0.354,1.215-1.42,1.234
			c-4.107,0.08-8.111-0.535-12.119-1.209c-6.098-1.025-11.842-2.972-17.277-5.539c-4.57-2.158-8.74-4.892-12.652-7.937
			c-3.465-2.696-6.404-5.789-9.113-9.065c-0.744-0.898-1.117-0.646-1.693,0.063c-4.564,5.599-10.137,10.281-16.57,14.14
			c-2.33,1.397-4.832,2.551-7.354,3.684c-4.303,1.934-8.791,3.41-13.451,4.371c-4.6,0.947-9.281,1.647-14.059,1.479
			c-0.936-0.032-1.195-0.381-1.193-1.151c0.02-6.09,0.021-12.183,0-18.271c-0.002-0.799,0.33-1.174,1.234-1.106
			c2.793,0.194,5.492-0.443,8.166-0.931c3.031-0.549,5.945-1.557,8.768-2.746c5.832-2.461,10.682-6.021,14.697-10.448
			c2.764-3.045,4.863-6.449,6.375-10.17c1.805-4.447,2.803-8.994,2.629-13.689c-0.148-3.979-0.959-7.876-2.564-11.645
			c-1.646-3.861-3.834-7.416-6.773-10.603c-2.275-2.465-4.82-4.688-7.717-6.602c-2.648-1.747-5.508-3.188-8.516-4.313
			c-2.699-1.013-5.525-1.759-8.465-2.2c-2.201-0.33-4.379-0.621-6.611-0.61c-1.08,0.006-1.221-0.658-1.217-1.438
			c0.01-5.247,0.006-10.491,0.006-15.739c0-0.809-0.01-1.614,0.002-2.422c0.012-0.774,0.42-1.089,1.332-1.049
			c3.371,0.149,6.752,0.227,10.068,0.826c2.482,0.448,4.973,0.868,7.396,1.566c2.369,0.687,4.744,1.354,7.029,2.24
			c3.961,1.532,7.654,3.478,11.252,5.604c4.051,2.396,7.559,5.312,10.875,8.43c2.375,2.236,4.41,4.718,6.369,7.255
			c2.145,2.78,3.861,5.769,5.426,8.807c1.047,2.029,1.828,4.188,2.559,6.35c0.766,2.271,1.225,4.599,1.83,6.897
			c0.305,1.153,0.475,2.335,0.484,3.474c0.021,2.645,0.75,5.227,0.617,7.877c-0.131,2.613,0.605,5.119,1.311,7.646
			c0.844,3.038,2.172,5.875,3.867,8.584c2.693,4.293,6.217,7.952,10.555,11.036c2.92,2.078,6.152,3.644,9.475,5.076
			c1.494,0.646,3.137,1.056,4.75,1.443c3.496,0.844,7.045,1.475,10.689,1.477c0.895,0,0.988,0.422,0.984,1.052
			C241.487,148.409,241.497,151.491,241.499,154.575z"/>
		
			<linearGradient id="SVGID_2_" gradientUnits="userSpaceOnUse" x1="-151.2236" y1="608.2539" x2="-100.3003" y2="608.2539" gradientTransform="matrix(1 0 0 -1 342 679)">
			<stop  offset="0" style="stop-color:#2ABA5C"/>
			<stop  offset="0.1732" style="stop-color:#4DBD5C"/>
			<stop  offset="0.4408" style="stop-color:#7CC15B"/>
			<stop  offset="0.6776" style="stop-color:#9EC45A"/>
			<stop  offset="0.8721" style="stop-color:#B3C65A"/>
			<stop  offset="1" style="stop-color:#BBC75A"/>
		</linearGradient>
		<path fill="url(#SVGID_2_)" d="M215.083,77.919c-2.949,2.062-5.453,4.488-7.639,7.195c-1.758,2.181-3.086,4.565-4.426,6.949
			c-0.143,0.254-0.213,0.646-0.607,0.6c-0.453-0.056-0.438-0.477-0.49-0.795c-0.09-0.574-0.105-1.177-0.762-1.528
			c0.08-0.293,0.025-0.575-0.102-0.849c0.102-0.157,0.08-0.295-0.092-0.403l-0.023-0.092c-0.236-0.676-0.475-1.351-0.709-2.022
			c0.053-0.07,0.037-0.124-0.047-0.162c-1.621-4.198-3.818-8.15-6.414-11.931c-0.828-1.204-1.719-2.379-2.656-3.519
			c-0.449-0.546-0.465-0.957,0.025-1.453c1.047-1.063,2.068-2.146,3.102-3.223l0.008-0.012c0.311-0.152,0.555-0.365,0.721-0.645
			l0.02-0.017c0.244-0.21,0.484-0.42,0.727-0.63l0.033-0.028c0.236-0.216,0.473-0.432,0.709-0.646l0.018-0.016
			c0.244-0.203,0.488-0.408,0.732-0.609l0.014-0.008c2.15-1.623,4.279-3.276,6.598-4.709c3.615-2.234,7.418-4.177,11.453-5.782
			c1.625-0.646,14.221-3.979,14.305-3.984c0.172,0.07,9.059-0.872,10.754-0.769c0.443,0.026,0.877,0.017,1.291,0.172
			c0.025,0.135,0.051,0.271,0.074,0.406c-0.027,1.572-0.078,3.147-0.082,4.721c-0.01,4.582-0.002,9.164-0.002,13.747
			c0,1.381-0.375,1.682-1.994,1.724c-0.633,0.018-4.098,0.176-4.344,0.309c-0.172-0.067-0.332-0.058-0.48,0.052
			c-0.707-0.138-6.035,1.155-6.27,1.36c-4.092,1.117-7.83,2.854-11.303,5.062c-0.297,0.19-0.643,0.332-0.717,0.7
			c-0.301-0.006-0.58,0.021-0.699,0.324c-0.299,0.099-0.553,0.248-0.711,0.502L215.083,77.919z"/>
		
			<linearGradient id="SVGID_3_" gradientUnits="userSpaceOnUse" x1="-318.6855" y1="608.3672" x2="-268.5439" y2="608.3672" gradientTransform="matrix(1 0 0 -1 342 679)">
			<stop  offset="0" style="stop-color:#BBC75A"/>
			<stop  offset="1" style="stop-color:#2ABA5C"/>
		</linearGradient>
		<path fill="url(#SVGID_3_)" d="M23.335,59.259c0-3.01,0.033-6.02-0.02-9.027c-0.018-0.974,0.389-1.259,1.449-1.259
			c4.471-0.004,8.854,0.584,13.201,1.438c3.074,0.604,6.062,1.435,8.994,2.483c3.275,1.175,6.473,2.47,9.498,4.082
			c5.936,3.161,11.227,7.015,15.73,11.7c0.242,0.252,0.506,0.484,0.77,0.717c0.629,0.553,0.637,1.13,0.174,1.779
			c-1.188,1.669-2.416,3.316-3.512,5.033c-2.016,3.164-3.758,6.435-5.104,9.888c-0.725,1.854-1.094,3.802-1.965,5.611
			c-0.133,0.273-0.219,0.599-0.629,0.588c-0.438-0.014-0.418-0.396-0.537-0.651c-1.492-3.15-3.504-6.007-5.994-8.615
			c-1.928-2.021-4.01-3.898-6.328-5.554c-2.4-1.715-5.033-3.119-7.816-4.317c-3.648-1.566-7.521-2.486-11.461-3.194
			c-1.523-0.273-3.105-0.325-4.68-0.288c-1.764,0.039-1.768,0.008-1.77-1.605C23.333,65.131,23.335,62.194,23.335,59.259z"/>
		<path fill="#8FBA5C" d="M27.263,139.996c-0.963-0.107-1.887-0.039-2.713,0.469c-0.305-0.017-0.607-0.033-0.91-0.049l-0.023-0.086
			l-0.096-0.011c-0.061-0.43-0.121-0.86-0.182-1.289c0.033-0.362,0.094-0.725,0.094-1.086c0.006-20.711,0.006-41.418,0-62.123
			c0-0.363-0.061-0.726-0.094-1.089c0.027-0.358,0.051-0.716,0.076-1.073c0.158,0.021,0.227-0.041,0.207-0.181
			c0.154-0.017,0.311-0.035,0.467-0.054c0.082,0.002,0.168,0.004,0.252,0.006c0.643,0.109,1.285,0.219,1.941,0.088
			c1.262,0.662,2.664,0.568,4.045,0.604c0.072,0.276,0.146,0.554,0.215,0.832c-0.033,0.36-0.096,0.725-0.096,1.086
			c-0.004,20.414-0.004,40.828,0,61.242c0,0.363,0.062,0.726,0.096,1.089c-0.035,0.428-0.068,0.858-0.104,1.288
			c-0.168-0.04-0.229,0.013-0.184,0.162c-0.154,0.023-0.307,0.045-0.459,0.068c-0.502-0.109-1-0.123-1.492,0.041
			C27.946,139.84,27.599,139.849,27.263,139.996z"/>
		<path fill="#8FBA5C" d="M129.337,140.098c-0.5,0.295-0.99,0.164-1.506,0.008c-0.418-0.123-0.859-0.26-1.316-0.088
			c-0.191-0.121-0.391-0.131-0.598-0.031c-0.465-0.233-0.951-0.19-1.441-0.09c-0.561-0.104-1.123-0.178-1.695-0.09
			c-0.004-0.252-0.154-0.367-0.428-0.369c-0.037-0.502-0.074-1.006-0.111-1.508c0.031-0.363,0.094-0.725,0.094-1.086
			c0.004-19.756,0.004-39.509,0-59.263c0-0.362,0.039-2.849,0.02-3.104c1.141-0.062,6.17-0.142,7.014-0.032
			c0.027,0.547-0.004,1.199-0.004,1.75c0.004,7.112,0.006,14.227,0.002,21.338C129.358,111.721,129.347,125.909,129.337,140.098z"/>
		<path fill="#8FBA5C" d="M45.825,81.164c0.629-0.374,1.125-0.311,1.719,0.173c1.67,1.36,3.275,2.763,4.744,4.298
			c0.572,0.598,0.852,1.229,0.852,1.997c-0.002,12.875,0,25.747,0,38.622c0,0.77-0.414,1.328-0.949,1.936
			c-1.355,1.537-2.85,2.931-4.559,4.15c-0.531,0.381-1.045,0.809-1.814,0.483c0.107-0.12,0.107-0.241-0.006-0.362
			c0.48-0.287,0.287-0.73,0.287-1.107c0.012-16.242,0.012-32.481,0-48.724c0-0.376,0.193-0.818-0.279-1.113
			C45.935,81.399,45.935,81.281,45.825,81.164z"/>
		<path fill="#8FBA5C" d="M108.442,132.821c-0.609,0.351-1.086,0.384-1.711-0.131c-1.629-1.34-3.213-2.707-4.703-4.166
			c-0.59-0.578-0.9-1.186-0.9-1.967c0.01-12.801,0.01-25.605,0-38.407c-0.002-0.739,0.242-1.353,0.799-1.897
			c1.516-1.49,3.098-2.915,4.793-4.248c0.596-0.469,1.092-0.562,1.727-0.184c-0.109,0.12-0.109,0.239,0.004,0.359
			c-0.475,0.293-0.279,0.735-0.279,1.11c-0.01,16.021-0.01,32.042,0,48.06c0,0.379-0.189,0.818,0.277,1.115
			C108.331,132.586,108.331,132.702,108.442,132.821z"/>
		
			<linearGradient id="SVGID_4_" gradientUnits="userSpaceOnUse" x1="-318.4033" y1="571.6953" x2="-211.8428" y2="571.6953" gradientTransform="matrix(1 0 0 -1 342 679)">
			<stop  offset="0" style="stop-color:#2ABA5C"/>
			<stop  offset="0.1732" style="stop-color:#4DBD5C"/>
			<stop  offset="0.4408" style="stop-color:#7CC15B"/>
			<stop  offset="0.6776" style="stop-color:#9EC45A"/>
			<stop  offset="0.8721" style="stop-color:#B3C65A"/>
			<stop  offset="1" style="stop-color:#BBC75A"/>
		</linearGradient>
		<path fill="url(#SVGID_4_)" d="M128.939,49.733c0.375,0.117,0.75,0.237,1.123,0.355c0.129,0.042,0.023,1.803,0.023,1.992
			c0.004,0.688,0.027,1.371,0.031,2.059c0.006,1.364,0.021,2.73,0.014,4.098c-0.014,2.729,0.074,5.469-0.01,8.198
			c-0.025,0.783-0.047,1.543-0.012,2.325c0.014,0.307,0.035,0.659-0.197,0.912c-0.26,0.283-5.145,0.664-5.783,0.652
			c-0.445-0.01-6.953,1.383-7.545,1.561c-0.607,0.184-1.158,0.486-1.756,0.689c-3.682,1.232-7.141,2.864-10.295,5.024
			c-2.961,2.028-5.596,4.339-7.861,6.928c-1.936,2.206-3.633,4.589-4.953,7.182c-0.73,1.433-1.43,2.911-1.908,4.37
			c-0.393,1.189-0.695,2.519-1.066,3.724c-0.926,3.005-0.156,6.081-0.82,9.009c-0.488,2.158-0.174,4.322-0.662,6.396
			c-0.379,1.614-0.557,3.266-1.066,4.868c-0.391,1.23-0.867,2.462-1.07,3.74c-0.141,0.896-0.629,1.699-0.936,2.539
			c-0.779,2.131-1.828,4.197-2.924,6.223c-0.881,1.63-1.914,3.203-3.014,4.728c-2.521,3.498-5.289,6.826-8.557,9.828
			c-4.336,3.979-9.271,7.266-14.631,10.043c-2.182,1.129-4.52,2.029-6.85,2.93c-1.434,0.551-2.818,1.099-4.352,1.406
			c-0.621,0.123-1.238,0.473-1.832,0.715c-1.482,0.609-4.891,1.357-5.051,1.363c-1.1,0.168-3.717,0.696-3.967,0.662
			c-0.924-0.084-3.234,0.493-4.404,0.469c-0.086,0.135-2.379,0.231-3.285,0.279c-0.244-0.037-0.486-0.072-0.732-0.107
			c-0.914-0.299-1-0.92-0.994-1.695c0.033-5.688,0.018-11.375,0.018-17.062c0-1.646,0.014-1.771,1.908-1.617
			c2.605,0.211,5.137-0.289,7.549-0.834c6.203-1.404,11.889-3.873,16.877-7.531c4.104-3.008,7.531-6.551,10.102-10.658
			c1.32-2.114,2.568-4.307,3.266-6.723c0.531-1.844,0.957-3.711,1.494-5.531c0.943-3.178,0.057-6.389,0.734-9.467
			c0.52-2.365,0.402-4.774,1.115-7.13c0.424-1.399,1-2.837,1.029-4.351c0.016-0.802,0.518-1.542,0.826-2.251
			c0.869-2.011,1.605-4.067,2.586-6.055c1.014-2.05,2.279-3.977,3.393-5.97c1.025-1.842,2.488-3.511,3.904-5.154
			c2.029-2.354,4.281-4.541,6.639-6.646c3.148-2.809,6.67-5.23,10.412-7.327c2.492-1.397,5.055-2.78,7.904-3.688
			c1.375-0.438,2.705-1.115,4.096-1.594c1.055-0.361,2.195-0.546,3.215-0.968c1.385-0.573,2.906-0.625,4.34-1.019
			c1.385-0.379,2.861-0.707,4.303-0.808c1.449-0.102,2.822-0.354,4.199-0.696c0.158,0.181,0.312,0.168,0.471,0.002
			c0.418-0.156,1.01,0.19,1.299-0.348c0.477-0.054,0.955-0.105,1.432-0.16c0.086-0.002,0.17-0.002,0.254-0.002
			c0.33,0.106,0.66,0.106,0.988,0.002C128.278,49.651,128.608,49.692,128.939,49.733z"/>
		
			<linearGradient id="SVGID_5_" gradientUnits="userSpaceOnUse" x1="-261.7163" y1="535.3984" x2="-212.2412" y2="535.3984" gradientTransform="matrix(1 0 0 -1 342 679)">
			<stop  offset="0" style="stop-color:#2ABA5C"/>
			<stop  offset="0.1732" style="stop-color:#4DBD5C"/>
			<stop  offset="0.4408" style="stop-color:#7CC15B"/>
			<stop  offset="0.6776" style="stop-color:#9EC45A"/>
			<stop  offset="0.8721" style="stop-color:#B3C65A"/>
			<stop  offset="1" style="stop-color:#BBC75A"/>
		</linearGradient>
		<path fill="url(#SVGID_5_)" d="M129.735,154.549c0,2.975-0.037,5.947,0.023,8.918c0.02,0.938-0.363,1.113-1.35,1.182
			c-1.764,0.121-3.393-0.438-5.1-0.559c-0.492-0.033-0.992-0.162-1.471-0.107c-2.145,0.244-4.178-0.479-6.172-0.852
			c-2.09-0.394-4.23-1.053-6.316-1.637c-3.336-0.937-6.486-2.191-9.533-3.607c-4.68-2.174-9.08-4.789-12.924-8.051
			c-2.119-1.795-4.229-3.605-6.154-5.572c-0.541-0.553-0.596-1.045-0.18-1.568c1.346-1.692,2.711-3.381,3.781-5.221
			c1.24-2.127,2.633-4.178,3.506-6.492c0.516-1.356,1.271-2.703,1.84-4.062c0.436-1.045,0.725-2.188,1.014-3.299
			c0.107-0.412-0.076-0.992,0.576-1.076c0.723-0.092,0.414,0.574,0.629,0.867c1.49,2.041,2.719,4.219,4.387,6.168
			c2.078,2.426,4.402,4.623,7.051,6.563c3.074,2.248,6.443,4.117,10.08,5.488c1.703,0.641,3.543,1.18,5.344,1.682
			c1.545,0.431,3.178,0.357,4.713,0.986c1.203,0.494,2.836,0.172,4.279,0.182c1.977,0.021,1.977,0.007,1.977,1.812
			C129.735,149.047,129.735,151.799,129.735,154.549z"/>
	</g>
	<g enable-background="new    ">
		<path fill="#5D5D5D" d="M320.086,88.084c-1.209,4.938-3.514,8.734-6.916,11.386c-3.502,2.628-7.646,3.941-12.432,3.941
			c-4.333-0.097-7.948-1.118-10.845-3.065c-2.947-1.873-5.089-4.038-6.424-6.496c-0.403-0.803-0.769-1.569-1.096-2.299
			c-0.302-0.754-0.554-1.703-0.756-2.847c-0.378-2.141-0.567-6.253-0.567-12.335c0-6.18,0.189-10.316,0.567-12.409
			c0.403-2.092,1.021-3.783,1.852-5.073c1.335-2.457,3.477-4.647,6.424-6.569c2.897-1.946,6.512-2.943,10.845-2.992
			c5.315,0.049,9.648,1.569,13,4.562c3.35,3.017,5.465,6.752,6.348,11.204h-8.842c-0.682-2.141-1.916-3.965-3.703-5.474
			c-1.865-1.436-4.133-2.177-6.803-2.226c-1.964,0.049-3.653,0.426-5.063,1.131c-1.436,0.729-2.595,1.642-3.477,2.737
			c-1.083,1.144-1.801,2.616-2.154,4.416c-0.403,1.898-0.604,5.462-0.604,10.693s0.201,8.771,0.604,10.62
			c0.353,1.85,1.07,3.346,2.154,4.489c0.881,1.095,2.041,1.983,3.477,2.664c1.41,0.803,3.099,1.204,5.063,1.204
			c4.686,0,8.188-2.42,10.506-7.262H320.086z"/>
		<path fill="#5D5D5D" d="M354.207,91.076h-20.895l-4.232,11.897h-8.844l20.027-53.21h6.992l20.027,53.21h-8.805L354.207,91.076z
			 M351.828,83.923l-7.975-23.248h-0.15l-7.973,23.248H351.828z"/>
		<path fill="#5D5D5D" d="M373.178,49.763h7.859l15.795,34.67l15.492-34.67h7.898v53.21h-8.352V69.799h-0.189l-11.523,25.546h-6.953
			L381.68,69.799h-0.152v33.174h-8.35V49.763z"/>
		<path fill="#5D5D5D" d="M431.822,49.763h21.35c5.416,0.049,9.484,1.363,12.205,3.942c2.746,2.604,4.119,6.046,4.119,10.328
			c0.051,2.189-0.49,4.282-1.625,6.277c-0.58,0.949-1.41,1.85-2.494,2.701c-1.082,0.9-2.418,1.715-4.004,2.445v0.146
			c2.996,0.754,5.264,2.275,6.801,4.562c1.436,2.36,2.154,4.927,2.154,7.7c-0.051,4.599-1.537,8.236-4.459,10.912
			c-2.896,2.799-6.512,4.197-10.846,4.197h-23.201V49.763z M440.174,56.953v15.218h12.055c3.047,0,5.289-0.766,6.725-2.299
			c1.461-1.411,2.193-3.188,2.193-5.329c0-2.141-0.732-3.954-2.193-5.438c-1.436-1.387-3.678-2.104-6.725-2.153H440.174z
			 M440.174,79.361v15.984h12.848c3.098-0.048,5.365-0.863,6.801-2.444c1.438-1.558,2.154-3.406,2.154-5.548
			c0-2.189-0.717-4.062-2.154-5.62c-1.436-1.533-3.703-2.323-6.801-2.372H440.174z"/>
		<path fill="#5D5D5D" d="M507.246,91.076H486.35l-4.232,11.897h-8.842l20.027-53.21h6.99l20.027,53.21h-8.805L507.246,91.076z
			 M504.865,83.923l-7.973-23.248h-0.152l-7.973,23.248H504.865z"/>
		<path fill="#5D5D5D" d="M526.215,49.763h7.859l15.795,34.67l15.494-34.67h7.896v53.21h-8.35V69.799h-0.189l-11.525,25.546h-6.953
			l-11.525-25.546h-0.15v33.174h-8.352V49.763z"/>
	</g>
	<g enable-background="new    ">
		<path fill="#5D5D5D" d="M291.518,133.306c-0.354,1.497-1.029,2.647-2.024,3.452c-1.025,0.796-2.239,1.194-3.64,1.194
			c-1.269-0.029-2.327-0.339-3.175-0.93c-0.863-0.567-1.49-1.224-1.881-1.969c-0.118-0.243-0.225-0.476-0.321-0.697
			c-0.088-0.229-0.162-0.516-0.221-0.862c-0.111-0.649-0.166-1.896-0.166-3.739c0-1.873,0.055-3.127,0.166-3.762
			c0.118-0.634,0.299-1.146,0.542-1.537c0.391-0.745,1.018-1.408,1.881-1.991c0.848-0.59,1.906-0.893,3.175-0.907
			c1.556,0.015,2.825,0.476,3.805,1.383c0.981,0.914,1.601,2.047,1.859,3.396h-2.589c-0.199-0.649-0.561-1.202-1.084-1.66
			c-0.546-0.435-1.209-0.659-1.991-0.675c-0.575,0.016-1.069,0.13-1.482,0.344c-0.42,0.221-0.76,0.497-1.018,0.829
			c-0.317,0.347-0.527,0.793-0.631,1.339c-0.118,0.575-0.177,1.655-0.177,3.241s0.059,2.659,0.177,3.219
			c0.104,0.561,0.313,1.015,0.631,1.361c0.258,0.332,0.597,0.601,1.018,0.808c0.413,0.243,0.907,0.364,1.482,0.364
			c1.372,0,2.396-0.733,3.075-2.201H291.518z"/>
		<path fill="#5D5D5D" d="M294.781,132.952c0,0.922,0.266,1.622,0.796,2.102c0.494,0.486,1.143,0.73,1.947,0.73
			c0.937,0,1.773-0.373,2.511-1.117l1.671,1.427c-1.174,1.254-2.552,1.873-4.138,1.858c-0.604,0-1.194-0.089-1.77-0.266
			c-0.288-0.096-0.568-0.225-0.84-0.387c-0.288-0.141-0.557-0.313-0.808-0.521c-0.487-0.428-0.881-1.024-1.184-1.792
			c-0.332-0.737-0.498-1.696-0.498-2.876c0-1.136,0.144-2.08,0.432-2.832c0.288-0.767,0.656-1.372,1.106-1.814
			c0.458-0.449,0.97-0.774,1.538-0.974c0.561-0.199,1.114-0.299,1.66-0.299c1.312,0.016,2.422,0.446,3.329,1.295
			c0.922,0.862,1.391,2.05,1.405,3.562v1.903H294.781z M299.626,131.049c-0.029-0.892-0.269-1.566-0.719-2.024
			c-0.442-0.435-1.011-0.652-1.704-0.652c-0.693,0-1.261,0.218-1.704,0.652c-0.436,0.458-0.675,1.133-0.719,2.024H299.626z"/>
		<path fill="#5D5D5D" d="M304.361,126.337h2.312v1.217h0.043c0.76-0.907,1.756-1.361,2.987-1.361c0.952,0,1.821,0.336,2.61,1.007
			c0.782,0.679,1.191,1.675,1.229,2.987v7.633h-2.312v-6.837c0-0.804-0.213-1.416-0.641-1.836c-0.421-0.428-0.963-0.642-1.627-0.642
			s-1.209,0.214-1.637,0.642c-0.436,0.42-0.652,1.032-0.652,1.836v6.837h-2.312V126.337z"/>
		<path fill="#5D5D5D" d="M316.662,122.841h2.312v3.496h1.682v1.759h-1.682v6.692c-0.015,0.583,0.258,0.867,0.818,0.852h0.863v2.18
			h-1.205c-0.812,0-1.476-0.251-1.992-0.752c-0.531-0.479-0.797-1.173-0.797-2.08v-6.892h-1.15v-1.759h1.15V122.841z"/>
		<path fill="#5D5D5D" d="M322.824,126.337h2.312v1.217h0.044c0.76-0.907,1.755-1.361,2.987-1.361
			c0.922,0.016,1.726,0.311,2.411,0.886l-1.681,2.002c-0.487-0.384-0.992-0.575-1.516-0.575c-0.591,0-1.096,0.191-1.516,0.575
			c-0.473,0.376-0.716,0.984-0.73,1.825v6.914h-2.312V126.337z"/>
		<path fill="#5D5D5D" d="M332.979,132.952c0,0.922,0.266,1.622,0.796,2.102c0.494,0.486,1.144,0.73,1.947,0.73
			c0.938,0,1.773-0.373,2.512-1.117l1.67,1.427c-1.172,1.254-2.551,1.873-4.137,1.858c-0.605,0-1.195-0.089-1.771-0.266
			c-0.288-0.096-0.567-0.225-0.841-0.387c-0.287-0.141-0.557-0.313-0.807-0.521c-0.487-0.428-0.882-1.024-1.184-1.792
			c-0.332-0.737-0.498-1.696-0.498-2.876c0-1.136,0.144-2.08,0.432-2.832c0.287-0.767,0.656-1.372,1.105-1.814
			c0.457-0.449,0.97-0.774,1.537-0.974c0.561-0.199,1.114-0.299,1.66-0.299c1.312,0.016,2.422,0.446,3.33,1.295
			c0.922,0.862,1.39,2.05,1.404,3.562v1.903H332.979z M337.824,131.049c-0.029-0.892-0.269-1.566-0.719-2.024
			c-0.441-0.435-1.01-0.652-1.703-0.652s-1.262,0.218-1.703,0.652c-0.436,0.458-0.676,1.133-0.72,2.024H337.824z"/>
		<path fill="#5D5D5D" d="M348.356,128.096h-1.161v-1.759h1.161v-1.516c0-1.092,0.302-1.896,0.907-2.412
			c0.59-0.479,1.331-0.719,2.224-0.719h1.493v2.18h-1.316c-0.693-0.022-1.025,0.295-0.996,0.951v1.516h2.312v1.759h-2.312v9.724
			h-2.312V128.096z"/>
		<path fill="#5D5D5D" d="M353.722,132.066c0-1.209,0.1-2.139,0.299-2.787c0.206-0.635,0.523-1.169,0.951-1.604
			c0.317-0.383,0.76-0.726,1.327-1.028c0.561-0.288,1.279-0.438,2.158-0.454c0.906,0.016,1.641,0.166,2.201,0.454
			c0.553,0.303,0.98,0.646,1.283,1.028c0.457,0.436,0.781,0.97,0.973,1.604c0.185,0.648,0.277,1.578,0.277,2.787
			c0,1.21-0.093,2.132-0.277,2.766c-0.191,0.635-0.516,1.185-0.973,1.648c-0.148,0.17-0.328,0.336-0.543,0.498
			c-0.191,0.185-0.438,0.343-0.74,0.476c-0.561,0.317-1.295,0.483-2.201,0.498c-0.879-0.015-1.598-0.181-2.158-0.498
			c-0.567-0.287-1.01-0.612-1.327-0.974c-0.428-0.464-0.745-1.014-0.951-1.648C353.821,134.198,353.722,133.276,353.722,132.066z
			 M360.879,132.089c0-0.818-0.037-1.416-0.11-1.792c-0.073-0.361-0.226-0.679-0.454-0.951c-0.17-0.258-0.42-0.461-0.752-0.608
			c-0.316-0.155-0.686-0.232-1.105-0.232c-0.392,0-0.753,0.077-1.084,0.232c-0.318,0.147-0.576,0.351-0.775,0.608
			c-0.199,0.272-0.343,0.59-0.432,0.951c-0.088,0.376-0.133,0.966-0.133,1.77c0,0.797,0.045,1.38,0.133,1.748
			c0.089,0.376,0.232,0.708,0.432,0.996c0.199,0.221,0.457,0.417,0.775,0.586c0.331,0.162,0.692,0.243,1.084,0.243
			c0.42,0,0.789-0.081,1.105-0.243c0.332-0.169,0.582-0.365,0.752-0.586c0.229-0.288,0.381-0.62,0.454-0.996
			C360.842,133.446,360.879,132.871,360.879,132.089z"/>
		<path fill="#5D5D5D" d="M365.614,126.337h2.312v1.217h0.045c0.76-0.907,1.755-1.361,2.986-1.361
			c0.922,0.016,1.727,0.311,2.412,0.886l-1.682,2.002c-0.486-0.384-0.992-0.575-1.516-0.575c-0.59,0-1.096,0.191-1.516,0.575
			c-0.473,0.376-0.715,0.984-0.73,1.825v6.914h-2.312V126.337z"/>
		<path fill="#5D5D5D" d="M388.336,134.213h-6.117l-1.239,3.606h-2.589l5.863-16.129h2.047l5.863,16.129h-2.578L388.336,134.213z
			 M387.639,132.045l-2.334-7.047h-0.044l-2.335,7.047H387.639z"/>
		<path fill="#5D5D5D" d="M393.68,126.337h2.312v1.194c0.767-0.855,1.755-1.302,2.964-1.339c1.409,0.037,2.438,0.539,3.087,1.505
			c0.317,0.361,0.534,0.837,0.653,1.427c0.11,0.583,0.166,1.571,0.166,2.965c0,1.357-0.056,2.331-0.166,2.921
			c-0.119,0.59-0.336,1.073-0.653,1.449c-0.317,0.442-0.733,0.796-1.25,1.062c-0.509,0.273-1.121,0.417-1.837,0.432
			c-0.59,0-1.117-0.129-1.581-0.388c-0.502-0.235-0.962-0.56-1.383-0.973v5.874h-2.312V126.337z M398.259,135.64
			c0.546,0,0.978-0.103,1.294-0.31c0.317-0.214,0.543-0.486,0.676-0.818c0.146-0.347,0.246-0.73,0.298-1.15
			c0.015-0.413,0.022-0.837,0.022-1.272c0-0.457-0.008-0.903-0.022-1.339c-0.052-0.435-0.151-0.818-0.298-1.15
			c-0.133-0.347-0.358-0.619-0.676-0.818c-0.316-0.185-0.748-0.276-1.294-0.276c-0.517,0-0.926,0.106-1.228,0.32
			c-0.317,0.215-0.55,0.494-0.697,0.841c-0.141,0.347-0.232,0.724-0.276,1.129c-0.044,0.428-0.066,0.859-0.066,1.294
			c0,0.406,0.022,0.812,0.066,1.217c0.044,0.428,0.136,0.815,0.276,1.162c0.147,0.347,0.38,0.627,0.697,0.841
			C397.333,135.529,397.742,135.64,398.259,135.64z"/>
		<path fill="#5D5D5D" d="M405.438,126.337h2.312v1.194c0.768-0.855,1.756-1.302,2.965-1.339c1.408,0.037,2.438,0.539,3.086,1.505
			c0.318,0.361,0.535,0.837,0.653,1.427c0.11,0.583,0.166,1.571,0.166,2.965c0,1.357-0.056,2.331-0.166,2.921
			c-0.118,0.59-0.335,1.073-0.653,1.449c-0.316,0.442-0.733,0.796-1.25,1.062c-0.508,0.273-1.121,0.417-1.836,0.432
			c-0.59,0-1.117-0.129-1.582-0.388c-0.502-0.235-0.962-0.56-1.383-0.973v5.874h-2.312V126.337z M410.018,135.64
			c0.547,0,0.978-0.103,1.295-0.31c0.316-0.214,0.542-0.486,0.675-0.818c0.147-0.347,0.247-0.73,0.298-1.15
			c0.016-0.413,0.023-0.837,0.023-1.272c0-0.457-0.008-0.903-0.023-1.339c-0.051-0.435-0.15-0.818-0.298-1.15
			c-0.133-0.347-0.358-0.619-0.675-0.818c-0.317-0.185-0.748-0.276-1.295-0.276c-0.516,0-0.926,0.106-1.228,0.32
			c-0.317,0.215-0.55,0.494-0.696,0.841c-0.141,0.347-0.232,0.724-0.277,1.129c-0.044,0.428-0.066,0.859-0.066,1.294
			c0,0.406,0.022,0.812,0.066,1.217c0.045,0.428,0.137,0.815,0.277,1.162c0.146,0.347,0.379,0.627,0.696,0.841
			C409.092,135.529,409.502,135.64,410.018,135.64z"/>
		<path fill="#5D5D5D" d="M417.198,121.69h2.312v13.164c0,0.523,0.288,0.785,0.863,0.785h0.797v2.18h-1.029
			c-0.841,0-1.534-0.21-2.08-0.631c-0.574-0.428-0.862-1.146-0.862-2.157V121.69z"/>
		<path fill="#5D5D5D" d="M423.105,121.69h2.312v2.312h-2.312V121.69z M423.105,126.337h2.312v11.482h-2.312V126.337z"/>
		<path fill="#5D5D5D" d="M430.219,132.952c0,0.922,0.266,1.622,0.796,2.102c0.494,0.486,1.144,0.73,1.947,0.73
			c0.937,0,1.773-0.373,2.511-1.117l1.671,1.427c-1.173,1.254-2.552,1.873-4.138,1.858c-0.604,0-1.194-0.089-1.77-0.266
			c-0.288-0.096-0.568-0.225-0.841-0.387c-0.288-0.141-0.558-0.313-0.808-0.521c-0.486-0.428-0.881-1.024-1.184-1.792
			c-0.332-0.737-0.498-1.696-0.498-2.876c0-1.136,0.145-2.08,0.432-2.832c0.287-0.767,0.656-1.372,1.105-1.814
			c0.458-0.449,0.971-0.774,1.538-0.974c0.561-0.199,1.114-0.299,1.659-0.299c1.312,0.016,2.423,0.446,3.33,1.295
			c0.922,0.862,1.391,2.05,1.404,3.562v1.903H430.219z M435.063,131.049c-0.029-0.892-0.269-1.566-0.719-2.024
			c-0.442-0.435-1.011-0.652-1.704-0.652s-1.261,0.218-1.703,0.652c-0.436,0.458-0.675,1.133-0.719,2.024H435.063z"/>
		<path fill="#5D5D5D" d="M446.668,136.613c-0.76,0.863-1.752,1.31-2.977,1.339c-0.693-0.015-1.286-0.158-1.78-0.432
			c-0.517-0.266-0.948-0.619-1.294-1.062c-0.318-0.361-0.527-0.853-0.631-1.472c-0.125-0.59-0.188-1.563-0.188-2.921
			c0-1.379,0.062-2.359,0.188-2.942c0.104-0.59,0.312-1.065,0.631-1.427c0.648-0.966,1.674-1.468,3.074-1.505
			c0.591,0,1.137,0.122,1.638,0.365c0.465,0.259,0.911,0.59,1.339,0.996v-5.863h2.312v16.129h-2.312V136.613z M444.4,128.505
			c-0.547,0-0.963,0.092-1.25,0.276c-0.317,0.199-0.55,0.472-0.697,0.818c-0.141,0.347-0.232,0.724-0.276,1.129
			c-0.044,0.435-0.066,0.881-0.066,1.338c0,0.436,0.022,0.859,0.066,1.272c0.044,0.436,0.136,0.826,0.276,1.173
			c0.147,0.332,0.38,0.604,0.697,0.818c0.287,0.207,0.703,0.31,1.25,0.31c0.545,0,0.977-0.11,1.294-0.331
			c0.317-0.214,0.534-0.494,0.653-0.841c0.146-0.347,0.246-0.734,0.298-1.162c0.015-0.42,0.022-0.833,0.022-1.239
			c0-0.442-0.008-0.866-0.022-1.271c-0.052-0.405-0.151-0.782-0.298-1.129c-0.119-0.347-0.336-0.626-0.653-0.841
			C445.377,128.611,444.945,128.505,444.4,128.505z"/>
		<path fill="#5D5D5D" d="M457.199,121.69h2.301l4.625,10.509l4.535-10.509h2.312v16.129h-2.444v-10.056h-0.056l-3.374,7.743h-2.035
			l-3.374-7.743h-0.044v10.056h-2.445V121.69z"/>
		<path fill="#5D5D5D" d="M480.188,136.802h-0.045c-0.214,0.391-0.546,0.679-0.996,0.862c-0.441,0.192-1.055,0.288-1.836,0.288
			c-1.283-0.015-2.271-0.354-2.965-1.018c-0.73-0.649-1.095-1.479-1.095-2.489c0-0.966,0.317-1.767,0.951-2.4
			c0.634-0.649,1.563-0.98,2.788-0.996h3.197v-1.205c0.014-1.011-0.771-1.501-2.357-1.472c-0.574,0-1.028,0.06-1.359,0.177
			c-0.348,0.141-0.62,0.376-0.819,0.708l-1.813-1.383c0.877-1.15,2.171-1.711,3.883-1.682c1.445-0.015,2.6,0.259,3.462,0.819
			c0.862,0.575,1.302,1.563,1.316,2.965v7.843h-2.312V136.802z M480.188,132.952h-2.766c-1.343,0.029-2.006,0.49-1.992,1.383
			c0,0.391,0.174,0.723,0.521,0.995c0.331,0.303,0.881,0.454,1.647,0.454c0.967,0.015,1.648-0.1,2.047-0.343
			c0.361-0.244,0.543-0.797,0.543-1.66V132.952z"/>
		<path fill="#5D5D5D" d="M485.619,122.841h2.312v3.496h1.682v1.759h-1.682v6.692c-0.015,0.583,0.259,0.867,0.819,0.852h0.862v2.18
			h-1.206c-0.811,0-1.475-0.251-1.99-0.752c-0.531-0.479-0.797-1.173-0.797-2.08v-6.892h-1.15v-1.759h1.15V122.841z"/>
		<path fill="#5D5D5D" d="M491.781,121.69h2.312v5.863h0.044c0.76-0.907,1.756-1.361,2.986-1.361c0.952,0,1.822,0.336,2.611,1.007
			c0.781,0.679,1.191,1.675,1.229,2.987v7.633h-2.312v-6.837c0-0.804-0.214-1.416-0.642-1.836c-0.421-0.428-0.962-0.642-1.626-0.642
			s-1.21,0.214-1.638,0.642c-0.435,0.42-0.652,1.032-0.652,1.836v6.837h-2.312V121.69z"/>
		<path fill="#5D5D5D" d="M505.697,132.952c0,0.922,0.266,1.622,0.796,2.102c0.494,0.486,1.144,0.73,1.947,0.73
			c0.937,0,1.773-0.373,2.511-1.117l1.671,1.427c-1.173,1.254-2.552,1.873-4.138,1.858c-0.604,0-1.194-0.089-1.77-0.266
			c-0.288-0.096-0.568-0.225-0.841-0.387c-0.288-0.141-0.558-0.313-0.808-0.521c-0.486-0.428-0.881-1.024-1.184-1.792
			c-0.332-0.737-0.498-1.696-0.498-2.876c0-1.136,0.145-2.08,0.432-2.832c0.287-0.767,0.656-1.372,1.105-1.814
			c0.458-0.449,0.971-0.774,1.538-0.974c0.561-0.199,1.114-0.299,1.659-0.299c1.312,0.016,2.423,0.446,3.33,1.295
			c0.922,0.862,1.391,2.05,1.404,3.562v1.903H505.697z M510.542,131.049c-0.029-0.892-0.269-1.566-0.719-2.024
			c-0.442-0.435-1.011-0.652-1.704-0.652s-1.261,0.218-1.703,0.652c-0.436,0.458-0.675,1.133-0.719,2.024H510.542z"/>
		<path fill="#5D5D5D" d="M515.41,126.337h2.312v1.217h0.044c0.76-0.907,1.76-1.361,2.998-1.361c0.797,0.016,1.438,0.151,1.926,0.41
			c0.479,0.287,0.918,0.652,1.316,1.095c0.899-1.018,2.105-1.52,3.617-1.505c0.951,0,1.821,0.336,2.61,1.007
			c0.782,0.679,1.188,1.675,1.217,2.987v7.633h-2.312v-6.837c0-0.804-0.211-1.416-0.631-1.836c-0.42-0.428-0.963-0.642-1.627-0.642
			c-0.663,0-1.209,0.214-1.637,0.642c-0.436,0.42-0.652,1.032-0.652,1.836v6.837h-2.312v-6.837c0-0.804-0.21-1.416-0.631-1.836
			c-0.428-0.428-0.973-0.642-1.637-0.642s-1.205,0.214-1.626,0.642c-0.442,0.42-0.664,1.032-0.664,1.836v6.837h-2.312V126.337z"/>
		<path fill="#5D5D5D" d="M540.609,136.802h-0.044c-0.214,0.391-0.546,0.679-0.995,0.862c-0.443,0.192-1.055,0.288-1.837,0.288
			c-1.283-0.015-2.271-0.354-2.964-1.018c-0.73-0.649-1.096-1.479-1.096-2.489c0-0.966,0.316-1.767,0.951-2.4
			c0.635-0.649,1.563-0.98,2.787-0.996h3.197v-1.205c0.016-1.011-0.771-1.501-2.355-1.472c-0.576,0-1.029,0.06-1.361,0.177
			c-0.347,0.141-0.619,0.376-0.818,0.708l-1.814-1.383c0.878-1.15,2.172-1.711,3.883-1.682c1.445-0.015,2.6,0.259,3.463,0.819
			c0.863,0.575,1.302,1.563,1.316,2.965v7.843h-2.312V136.802z M540.609,132.952h-2.766c-1.342,0.029-2.006,0.49-1.99,1.383
			c0,0.391,0.173,0.723,0.52,0.995c0.332,0.303,0.881,0.454,1.648,0.454c0.966,0.015,1.648-0.1,2.047-0.343
			c0.361-0.244,0.541-0.797,0.541-1.66V132.952z"/>
		<path fill="#5D5D5D" d="M546.041,122.841h2.312v3.496h1.682v1.759h-1.682v6.692c-0.015,0.583,0.258,0.867,0.818,0.852h0.863v2.18
			h-1.205c-0.812,0-1.476-0.251-1.992-0.752c-0.531-0.479-0.797-1.173-0.797-2.08v-6.892h-1.15v-1.759h1.15V122.841z"/>
		<path fill="#5D5D5D" d="M552.27,121.69h2.312v2.312h-2.312V121.69z M552.27,126.337h2.312v11.482h-2.312V126.337z"/>
		<path fill="#5D5D5D" d="M566.087,135.961c-0.502,0.575-1.092,1.044-1.771,1.405c-0.678,0.376-1.464,0.571-2.355,0.586
			c-1.357,0-2.549-0.461-3.574-1.383c-1.062-0.922-1.607-2.415-1.637-4.48c0.029-2.087,0.575-3.599,1.637-4.535
			c1.025-0.922,2.217-1.376,3.574-1.361c0.892,0.016,1.678,0.199,2.355,0.554c0.679,0.361,1.269,0.845,1.771,1.449l-1.704,1.516
			c-0.582-0.774-1.36-1.177-2.334-1.206c-1.962-0.029-2.957,1.165-2.986,3.584c0.029,2.404,1.024,3.588,2.986,3.551
			c0.974-0.015,1.752-0.412,2.334-1.194L566.087,135.961z"/>
		<path fill="#5D5D5D" d="M571.662,135.784c0.664,0,1.205-0.129,1.626-0.388c0.421-0.258,0.631-0.619,0.631-1.084
			c0-0.413-0.126-0.7-0.376-0.863c-0.258-0.169-0.602-0.261-1.029-0.276l-2.035-0.177c-0.967-0.089-1.752-0.413-2.356-0.974
			c-0.62-0.546-0.937-1.309-0.951-2.29c0.015-1.18,0.431-2.064,1.25-2.654c0.796-0.59,1.807-0.886,3.031-0.886
			c0.53,0,1.007,0.033,1.427,0.1c0.42,0.074,0.814,0.178,1.184,0.311c0.708,0.287,1.342,0.675,1.902,1.161l-1.427,1.67
			c-0.442-0.316-0.911-0.578-1.405-0.785c-0.486-0.185-1.047-0.276-1.681-0.276c-0.724,0-1.228,0.129-1.516,0.387
			c-0.303,0.259-0.454,0.591-0.454,0.996c-0.015,0.258,0.1,0.483,0.344,0.675c0.221,0.214,0.611,0.351,1.172,0.409l1.902,0.144
			c1.195,0.089,2.059,0.45,2.59,1.084c0.494,0.62,0.74,1.405,0.74,2.356c-0.015,1.114-0.469,1.974-1.36,2.578
			c-0.885,0.619-2.017,0.937-3.396,0.951c-1.874,0-3.559-0.686-5.057-2.058l1.615-1.582
			C568.971,135.294,570.18,135.784,571.662,135.784z"/>
	</g>
	<g enable-background="new    ">
		<path fill="#5D5D5D" d="M280.5,148.876h2.312v2.312H280.5V148.876z M280.5,153.522h2.312v11.482H280.5V153.522z"/>
		<path fill="#5D5D5D" d="M285.865,153.522h2.312v1.217h0.044c0.76-0.907,1.755-1.361,2.987-1.361c0.952,0,1.822,0.336,2.611,1.007
			c0.782,0.679,1.191,1.675,1.228,2.987v7.633h-2.312v-6.837c0-0.804-0.214-1.416-0.642-1.836c-0.42-0.428-0.962-0.642-1.626-0.642
			c-0.664,0-1.209,0.214-1.637,0.642c-0.435,0.42-0.652,1.032-0.652,1.836v6.837h-2.312V153.522z"/>
		<path fill="#5D5D5D" d="M303.676,148.876h6.25c1.586,0.015,2.776,0.413,3.572,1.194c0.805,0.79,1.207,1.833,1.207,3.131
			c0.014,0.664-0.145,1.298-0.477,1.903c-0.17,0.287-0.412,0.561-0.73,0.818c-0.316,0.272-0.707,0.52-1.172,0.741v0.044
			c0.877,0.229,1.541,0.689,1.991,1.383c0.421,0.716,0.63,1.493,0.63,2.334c-0.014,1.395-0.449,2.497-1.305,3.308
			c-0.848,0.849-1.906,1.272-3.175,1.272h-6.792V148.876z M306.12,151.056v4.612h3.528c0.893,0,1.549-0.232,1.97-0.696
			c0.428-0.428,0.642-0.967,0.642-1.615c0-0.649-0.214-1.198-0.642-1.648c-0.421-0.421-1.077-0.638-1.97-0.652H306.12z
			 M306.12,157.848v4.845h3.761c0.908-0.015,1.571-0.262,1.992-0.741c0.42-0.472,0.63-1.032,0.63-1.681
			c0-0.664-0.21-1.231-0.63-1.704c-0.421-0.465-1.084-0.704-1.992-0.719H306.12z"/>
		<path fill="#5D5D5D" d="M317.348,148.876h2.312v2.312h-2.312V148.876z M317.348,153.522h2.312v11.482h-2.312V153.522z"/>
		<path fill="#5D5D5D" d="M322.149,159.252c0-1.209,0.1-2.139,0.299-2.787c0.206-0.635,0.523-1.169,0.951-1.604
			c0.317-0.383,0.76-0.726,1.327-1.028c0.561-0.288,1.279-0.438,2.158-0.454c0.906,0.016,1.641,0.166,2.201,0.454
			c0.553,0.303,0.98,0.646,1.283,1.028c0.457,0.436,0.781,0.97,0.973,1.604c0.185,0.648,0.277,1.578,0.277,2.787
			c0,1.21-0.093,2.132-0.277,2.766c-0.191,0.635-0.516,1.185-0.973,1.648c-0.148,0.17-0.328,0.336-0.543,0.498
			c-0.191,0.185-0.438,0.343-0.74,0.476c-0.561,0.317-1.295,0.483-2.201,0.498c-0.879-0.015-1.598-0.181-2.158-0.498
			c-0.567-0.287-1.01-0.612-1.327-0.974c-0.428-0.464-0.745-1.014-0.951-1.648C322.249,161.384,322.149,160.462,322.149,159.252z
			 M329.307,159.274c0-0.818-0.037-1.416-0.11-1.792c-0.073-0.361-0.226-0.679-0.454-0.951c-0.17-0.258-0.42-0.461-0.752-0.608
			c-0.316-0.155-0.686-0.232-1.105-0.232c-0.392,0-0.753,0.077-1.084,0.232c-0.318,0.147-0.576,0.351-0.775,0.608
			c-0.199,0.272-0.343,0.59-0.432,0.951c-0.088,0.376-0.133,0.966-0.133,1.77c0,0.797,0.045,1.38,0.133,1.748
			c0.089,0.376,0.232,0.708,0.432,0.996c0.199,0.221,0.457,0.417,0.775,0.586c0.331,0.162,0.692,0.243,1.084,0.243
			c0.42,0,0.789-0.081,1.105-0.243c0.332-0.169,0.582-0.365,0.752-0.586c0.229-0.288,0.381-0.62,0.454-0.996
			C329.27,160.632,329.307,160.057,329.307,159.274z"/>
		<path fill="#5D5D5D" d="M338.014,162.97c0.663,0,1.205-0.129,1.625-0.388c0.421-0.258,0.631-0.619,0.631-1.084
			c0-0.413-0.125-0.7-0.376-0.863c-0.258-0.169-0.601-0.261-1.028-0.276l-2.035-0.177c-0.967-0.089-1.752-0.413-2.357-0.974
			c-0.619-0.546-0.936-1.309-0.951-2.29c0.016-1.18,0.432-2.064,1.25-2.654c0.797-0.59,1.807-0.886,3.031-0.886
			c0.531,0,1.007,0.033,1.428,0.1c0.42,0.074,0.814,0.178,1.184,0.311c0.707,0.287,1.342,0.675,1.902,1.161l-1.428,1.67
			c-0.441-0.316-0.91-0.578-1.404-0.785c-0.486-0.185-1.047-0.276-1.682-0.276c-0.723,0-1.228,0.129-1.516,0.387
			c-0.303,0.259-0.453,0.591-0.453,0.996c-0.016,0.258,0.1,0.483,0.343,0.675c0.222,0.214,0.612,0.351,1.173,0.409l1.902,0.144
			c1.195,0.089,2.058,0.45,2.589,1.084c0.494,0.62,0.741,1.405,0.741,2.356c-0.016,1.114-0.469,1.974-1.361,2.578
			c-0.885,0.619-2.017,0.937-3.396,0.951c-1.874,0-3.559-0.686-5.056-2.058l1.615-1.582
			C335.321,162.479,336.531,162.97,338.014,162.97z"/>
		<path fill="#5D5D5D" d="M353.368,163.146c-0.502,0.575-1.092,1.044-1.771,1.405c-0.678,0.376-1.464,0.571-2.355,0.586
			c-1.357,0-2.549-0.461-3.574-1.383c-1.062-0.922-1.607-2.415-1.637-4.48c0.029-2.087,0.575-3.599,1.637-4.535
			c1.025-0.922,2.217-1.376,3.574-1.361c0.892,0.016,1.678,0.199,2.355,0.554c0.679,0.361,1.269,0.845,1.771,1.449l-1.704,1.516
			c-0.582-0.774-1.36-1.177-2.334-1.206c-1.962-0.029-2.957,1.165-2.986,3.584c0.029,2.404,1.024,3.588,2.986,3.551
			c0.974-0.015,1.752-0.412,2.334-1.194L353.368,163.146z"/>
		<path fill="#5D5D5D" d="M355.038,148.876h2.312v2.312h-2.312V148.876z M355.038,153.522h2.312v11.482h-2.312V153.522z"/>
		<path fill="#5D5D5D" d="M362.151,160.138c0,0.922,0.266,1.622,0.796,2.102c0.494,0.486,1.144,0.73,1.947,0.73
			c0.938,0,1.773-0.373,2.512-1.117l1.67,1.427c-1.172,1.254-2.551,1.873-4.137,1.858c-0.605,0-1.195-0.089-1.771-0.266
			c-0.288-0.096-0.567-0.225-0.841-0.387c-0.287-0.141-0.557-0.313-0.807-0.521c-0.487-0.428-0.882-1.024-1.184-1.792
			c-0.332-0.737-0.498-1.696-0.498-2.876c0-1.136,0.144-2.08,0.432-2.832c0.287-0.767,0.656-1.372,1.105-1.814
			c0.457-0.449,0.97-0.774,1.537-0.974c0.561-0.199,1.114-0.299,1.66-0.299c1.312,0.016,2.422,0.446,3.33,1.295
			c0.922,0.862,1.39,2.05,1.404,3.562v1.903H362.151z M366.996,158.234c-0.029-0.892-0.269-1.566-0.719-2.024
			c-0.441-0.435-1.01-0.652-1.703-0.652s-1.262,0.218-1.703,0.652c-0.436,0.458-0.676,1.133-0.72,2.024H366.996z"/>
		<path fill="#5D5D5D" d="M371.731,153.522h2.312v1.217h0.045c0.76-0.907,1.755-1.361,2.986-1.361c0.951,0,1.822,0.336,2.611,1.007
			c0.781,0.679,1.19,1.675,1.228,2.987v7.633h-2.312v-6.837c0-0.804-0.215-1.416-0.643-1.836c-0.42-0.428-0.962-0.642-1.626-0.642
			c-0.663,0-1.21,0.214-1.638,0.642c-0.435,0.42-0.652,1.032-0.652,1.836v6.837h-2.312V153.522z"/>
		<path fill="#5D5D5D" d="M392.352,163.146c-0.502,0.575-1.092,1.044-1.77,1.405c-0.679,0.376-1.465,0.571-2.356,0.586
			c-1.356,0-2.548-0.461-3.573-1.383c-1.062-0.922-1.607-2.415-1.637-4.48c0.029-2.087,0.574-3.599,1.637-4.535
			c1.025-0.922,2.217-1.376,3.573-1.361c0.892,0.016,1.678,0.199,2.356,0.554c0.678,0.361,1.268,0.845,1.77,1.449l-1.703,1.516
			c-0.583-0.774-1.361-1.177-2.334-1.206c-1.963-0.029-2.958,1.165-2.987,3.584c0.029,2.404,1.024,3.588,2.987,3.551
			c0.973-0.015,1.751-0.412,2.334-1.194L392.352,163.146z"/>
		<path fill="#5D5D5D" d="M395.703,160.138c0,0.922,0.266,1.622,0.797,2.102c0.494,0.486,1.143,0.73,1.947,0.73
			c0.937,0,1.773-0.373,2.512-1.117l1.67,1.427c-1.173,1.254-2.552,1.873-4.138,1.858c-0.604,0-1.194-0.089-1.771-0.266
			c-0.287-0.096-0.567-0.225-0.84-0.387c-0.287-0.141-0.557-0.313-0.808-0.521c-0.487-0.428-0.882-1.024-1.184-1.792
			c-0.332-0.737-0.498-1.696-0.498-2.876c0-1.136,0.144-2.08,0.432-2.832c0.288-0.767,0.656-1.372,1.106-1.814
			c0.457-0.449,0.969-0.774,1.537-0.974c0.561-0.199,1.113-0.299,1.66-0.299c1.312,0.016,2.422,0.446,3.329,1.295
			c0.922,0.862,1.39,2.05,1.405,3.562v1.903H395.703z M400.549,158.234c-0.029-0.892-0.27-1.566-0.719-2.024
			c-0.442-0.435-1.011-0.652-1.703-0.652c-0.693,0-1.262,0.218-1.704,0.652c-0.436,0.458-0.675,1.133-0.72,2.024H400.549z"/>
		<path fill="#5D5D5D" d="M416.744,163.987h-0.045c-0.213,0.391-0.545,0.679-0.995,0.862c-0.442,0.192-1.055,0.288-1.837,0.288
			c-1.283-0.015-2.271-0.354-2.964-1.018c-0.73-0.649-1.095-1.479-1.095-2.489c0-0.966,0.316-1.767,0.951-2.4
			c0.634-0.649,1.562-0.98,2.787-0.996h3.197v-1.205c0.015-1.011-0.771-1.501-2.356-1.472c-0.575,0-1.028,0.06-1.36,0.177
			c-0.348,0.141-0.619,0.376-0.818,0.708l-1.814-1.383c0.877-1.15,2.172-1.711,3.883-1.682c1.445-0.015,2.6,0.259,3.463,0.819
			c0.862,0.575,1.301,1.563,1.316,2.965v7.843h-2.312V163.987z M416.744,160.138h-2.766c-1.342,0.029-2.006,0.49-1.991,1.383
			c0,0.391,0.173,0.723,0.521,0.995c0.331,0.303,0.881,0.454,1.647,0.454c0.966,0.015,1.648-0.1,2.047-0.343
			c0.361-0.244,0.542-0.797,0.542-1.66V160.138z"/>
		<path fill="#5D5D5D" d="M422.043,153.522h2.312v1.217h0.044c0.76-0.907,1.755-1.361,2.987-1.361c0.951,0,1.821,0.336,2.61,1.007
			c0.782,0.679,1.19,1.675,1.228,2.987v7.633h-2.312v-6.837c0-0.804-0.214-1.416-0.642-1.836c-0.42-0.428-0.963-0.642-1.627-0.642
			c-0.663,0-1.209,0.214-1.637,0.642c-0.436,0.42-0.652,1.032-0.652,1.836v6.837h-2.312V153.522z"/>
		<path fill="#5D5D5D" d="M441.082,163.799c-0.76,0.863-1.752,1.31-2.977,1.339c-0.693-0.015-1.287-0.158-1.781-0.432
			c-0.516-0.266-0.947-0.619-1.294-1.062c-0.317-0.361-0.527-0.853-0.63-1.472c-0.126-0.59-0.188-1.563-0.188-2.921
			c0-1.379,0.062-2.359,0.188-2.942c0.103-0.59,0.312-1.065,0.63-1.427c0.649-0.966,1.675-1.468,3.075-1.505
			c0.59,0,1.136,0.122,1.637,0.365c0.465,0.259,0.912,0.59,1.34,0.996v-5.863h2.312v16.129h-2.312V163.799z M438.813,155.69
			c-0.546,0-0.962,0.092-1.25,0.276c-0.317,0.199-0.55,0.472-0.696,0.818c-0.141,0.347-0.232,0.724-0.277,1.129
			c-0.044,0.435-0.066,0.881-0.066,1.338c0,0.436,0.022,0.859,0.066,1.272c0.045,0.436,0.137,0.826,0.277,1.173
			c0.146,0.332,0.379,0.604,0.696,0.818c0.288,0.207,0.704,0.31,1.25,0.31s0.978-0.11,1.294-0.331
			c0.317-0.214,0.535-0.494,0.653-0.841c0.147-0.347,0.247-0.734,0.298-1.162c0.016-0.42,0.023-0.833,0.023-1.239
			c0-0.442-0.008-0.866-0.023-1.271c-0.051-0.405-0.15-0.782-0.298-1.129c-0.118-0.347-0.336-0.626-0.653-0.841
			C439.791,155.797,439.359,155.69,438.813,155.69z"/>
		<path fill="#5D5D5D" d="M451.613,148.876h2.301l4.624,10.509l4.535-10.509h2.312v16.129h-2.443v-10.056h-0.057l-3.373,7.743
			h-2.035l-3.375-7.743h-0.044v10.056h-2.444V148.876z"/>
		<path fill="#5D5D5D" d="M470.319,160.138c0,0.922,0.266,1.622,0.796,2.102c0.494,0.486,1.144,0.73,1.947,0.73
			c0.938,0,1.773-0.373,2.512-1.117l1.67,1.427c-1.172,1.254-2.551,1.873-4.137,1.858c-0.605,0-1.195-0.089-1.771-0.266
			c-0.288-0.096-0.567-0.225-0.841-0.387c-0.287-0.141-0.557-0.313-0.807-0.521c-0.487-0.428-0.882-1.024-1.184-1.792
			c-0.332-0.737-0.498-1.696-0.498-2.876c0-1.136,0.144-2.08,0.432-2.832c0.287-0.767,0.656-1.372,1.105-1.814
			c0.457-0.449,0.97-0.774,1.537-0.974c0.561-0.199,1.114-0.299,1.66-0.299c1.312,0.016,2.422,0.446,3.33,1.295
			c0.922,0.862,1.39,2.05,1.404,3.562v1.903H470.319z M475.164,158.234c-0.029-0.892-0.269-1.566-0.719-2.024
			c-0.441-0.435-1.01-0.652-1.703-0.652s-1.262,0.218-1.703,0.652c-0.436,0.458-0.676,1.133-0.72,2.024H475.164z"/>
		<path fill="#5D5D5D" d="M486.77,163.799c-0.76,0.863-1.752,1.31-2.977,1.339c-0.693-0.015-1.286-0.158-1.78-0.432
			c-0.517-0.266-0.948-0.619-1.294-1.062c-0.318-0.361-0.527-0.853-0.631-1.472c-0.125-0.59-0.188-1.563-0.188-2.921
			c0-1.379,0.062-2.359,0.188-2.942c0.104-0.59,0.312-1.065,0.631-1.427c0.648-0.966,1.674-1.468,3.074-1.505
			c0.591,0,1.137,0.122,1.638,0.365c0.465,0.259,0.911,0.59,1.339,0.996v-5.863h2.312v16.129h-2.312V163.799z M484.502,155.69
			c-0.547,0-0.963,0.092-1.25,0.276c-0.317,0.199-0.55,0.472-0.697,0.818c-0.141,0.347-0.232,0.724-0.276,1.129
			c-0.044,0.435-0.066,0.881-0.066,1.338c0,0.436,0.022,0.859,0.066,1.272c0.044,0.436,0.136,0.826,0.276,1.173
			c0.147,0.332,0.38,0.604,0.697,0.818c0.287,0.207,0.703,0.31,1.25,0.31c0.545,0,0.977-0.11,1.294-0.331
			c0.317-0.214,0.534-0.494,0.653-0.841c0.146-0.347,0.246-0.734,0.298-1.162c0.015-0.42,0.022-0.833,0.022-1.239
			c0-0.442-0.008-0.866-0.022-1.271c-0.052-0.405-0.151-0.782-0.298-1.129c-0.119-0.347-0.336-0.626-0.653-0.841
			C485.479,155.797,485.047,155.69,484.502,155.69z"/>
		<path fill="#5D5D5D" d="M493.406,160.138c0,0.922,0.266,1.622,0.797,2.102c0.494,0.486,1.143,0.73,1.947,0.73
			c0.937,0,1.773-0.373,2.512-1.117l1.67,1.427c-1.173,1.254-2.552,1.873-4.138,1.858c-0.604,0-1.194-0.089-1.771-0.266
			c-0.287-0.096-0.567-0.225-0.84-0.387c-0.287-0.141-0.557-0.313-0.808-0.521c-0.487-0.428-0.882-1.024-1.184-1.792
			c-0.332-0.737-0.498-1.696-0.498-2.876c0-1.136,0.144-2.08,0.432-2.832c0.288-0.767,0.656-1.372,1.106-1.814
			c0.457-0.449,0.969-0.774,1.537-0.974c0.561-0.199,1.113-0.299,1.66-0.299c1.312,0.016,2.422,0.446,3.329,1.295
			c0.922,0.862,1.39,2.05,1.405,3.562v1.903H493.406z M498.252,158.234c-0.029-0.892-0.27-1.566-0.719-2.024
			c-0.442-0.435-1.011-0.652-1.703-0.652c-0.693,0-1.262,0.218-1.704,0.652c-0.436,0.458-0.675,1.133-0.72,2.024H498.252z"/>
		<path fill="#5D5D5D" d="M511.438,163.146c-0.502,0.575-1.092,1.044-1.771,1.405c-0.678,0.376-1.464,0.571-2.355,0.586
			c-1.357,0-2.549-0.461-3.574-1.383c-1.062-0.922-1.607-2.415-1.637-4.48c0.029-2.087,0.575-3.599,1.637-4.535
			c1.025-0.922,2.217-1.376,3.574-1.361c0.892,0.016,1.678,0.199,2.355,0.554c0.679,0.361,1.269,0.845,1.771,1.449l-1.704,1.516
			c-0.582-0.774-1.36-1.177-2.334-1.206c-1.962-0.029-2.957,1.165-2.986,3.584c0.029,2.404,1.024,3.588,2.986,3.551
			c0.974-0.015,1.752-0.412,2.334-1.194L511.438,163.146z"/>
		<path fill="#5D5D5D" d="M513.108,148.876h2.312v2.312h-2.312V148.876z M513.108,153.522h2.312v11.482h-2.312V153.522z"/>
		<path fill="#5D5D5D" d="M518.475,153.522h2.312v1.217h0.044c0.76-0.907,1.756-1.361,2.986-1.361c0.952,0,1.822,0.336,2.611,1.007
			c0.781,0.679,1.191,1.675,1.229,2.987v7.633h-2.312v-6.837c0-0.804-0.214-1.416-0.642-1.836c-0.421-0.428-0.962-0.642-1.626-0.642
			s-1.21,0.214-1.638,0.642c-0.435,0.42-0.652,1.032-0.652,1.836v6.837h-2.312V153.522z"/>
		<path fill="#5D5D5D" d="M532.391,160.138c0,0.922,0.266,1.622,0.797,2.102c0.494,0.486,1.143,0.73,1.947,0.73
			c0.936,0,1.773-0.373,2.511-1.117l1.671,1.427c-1.174,1.254-2.553,1.873-4.139,1.858c-0.604,0-1.193-0.089-1.77-0.266
			c-0.287-0.096-0.568-0.225-0.84-0.387c-0.288-0.141-0.558-0.313-0.809-0.521c-0.486-0.428-0.881-1.024-1.184-1.792
			c-0.332-0.737-0.498-1.696-0.498-2.876c0-1.136,0.145-2.08,0.432-2.832c0.288-0.767,0.656-1.372,1.106-1.814
			c0.458-0.449,0.97-0.774,1.538-0.974c0.561-0.199,1.113-0.299,1.659-0.299c1.312,0.016,2.423,0.446,3.329,1.295
			c0.922,0.862,1.391,2.05,1.405,3.562v1.903H532.391z M537.236,158.234c-0.029-0.892-0.27-1.566-0.719-2.024
			c-0.443-0.435-1.012-0.652-1.704-0.652c-0.693,0-1.261,0.218-1.704,0.652c-0.436,0.458-0.674,1.133-0.719,2.024H537.236z"/>
	</g>
</g>
</svg>
